<svg width="190" height="76" viewBox="0 0 190 76" fill="none" xmlns="http://www.w3.org/2000/svg">
<path d="M36.3812 50.8472H29.8579L34.3039 25.5069H54.0132C54.0132 25.5069 57.57 25.5069 59.3168 29.0637C61.0635 32.6205 63.9236 41.6594 63.9236 41.6594L66.9054 38.1761L62.6114 25.5069H70.0214L75.3667 41.5112L87.362 25.5069H94.62L77.097 49.3658C75.5238 51.2949 71.8732 52.675 70.751 49.2176L69.3861 44.327L65.2745 50.027C63.8356 52.0353 60.2123 52.1341 59.3472 50.027L56.3952 41.5112C56.3952 41.5112 53.6782 44.327 50.7142 44.327H38.2667L39.3433 38.1773H50.1632C54.5813 38.0538 55.7137 31.8795 51.3203 31.5831H39.6131L36.3812 50.8472Z" fill="#282361"/>
<path d="M14.9468 23.99H21.1617C21.1617 23.99 48.4267 2.93993 63.0618 19.9804C54.6441 0.333765 21.966 15.9708 14.9468 23.99Z" fill="#282361"/>
<path d="M65.2693 23.99H69.2789C69.2789 23.99 68.6772 -5.28012 28.5815 13.5653C66.6727 -0.668818 65.2693 23.99 65.2693 23.99Z" fill="#282361"/>
<path d="M4.32373 48.6495H9.7362C9.7362 48.6495 13.9466 62.8837 36.6009 56.8689C9.3353 67.2942 4.32373 48.6495 4.32373 48.6495Z" fill="#282361"/>
<path d="M52.8396 48.6495H58.2527C58.2527 48.6495 22.9678 81.2877 5.12549 54.3432C24.7721 73.5091 52.8396 48.6495 52.8396 48.6495Z" fill="#282361"/>
<path d="M98.5188 38.9456H101.337L102.059 34.6244H104.421C107.5 34.6244 109.582 32.8022 110.018 30.134C110.454 27.4788 109.016 25.6175 105.99 25.6175H100.731L98.5188 38.9456ZM102.436 32.3662L103.178 27.9213H105.079C106.706 27.9213 107.33 28.7999 107.116 30.134C106.901 31.4551 105.97 32.3662 104.337 32.3662H102.436ZM111.142 38.9456L112.639 35.9064H117.448L117.93 38.9456H120.95L118.568 25.6175H114.936L108.123 38.9456H111.142ZM113.719 33.7068L116.205 28.6632H116.31L117.104 33.7068H113.719ZM122.625 25.6175L126.062 34.2339L125.274 38.9456H128.073L128.86 34.2339L135.147 25.6175H131.99L128.014 31.3575H127.871L125.782 25.6175H122.625ZM141.715 38.9456H144.461L148.45 30.2316H148.554L149.635 38.9456H152.381L158.407 25.6175H155.329L151.594 34.8977H151.476L150.578 25.6175H147.943L143.979 34.8782H143.869L143.192 25.6175H140.114L141.715 38.9456ZM158.64 38.9456L160.137 35.9064H164.946L165.428 38.9456H168.447L166.065 25.6175H162.434L155.62 38.9456H158.64ZM161.217 33.7068L163.703 28.6632H163.807L164.601 33.7068H161.217ZM170.123 25.6175L173.559 34.2339L172.772 38.9456H175.57L176.358 34.2339L182.644 25.6175H179.488L175.512 31.3575H175.368L173.279 25.6175H170.123Z" fill="#282361"/>
<path d="M104.148 49.7321H103.11V44.519H100.316V49.7321H99.2719V43.6604H104.148V49.7321ZM110.792 43.6604V49.7321H109.749V44.519H107.684L107.56 46.7917C107.493 47.8354 107.317 48.5818 107.033 49.0307C106.752 49.4796 106.305 49.7134 105.692 49.7321H105.276V48.8175L105.574 48.795C105.91 48.7576 106.152 48.5631 106.298 48.2114C106.443 47.8598 106.537 47.2088 106.578 46.2586L106.69 43.6604H110.792ZM116.208 49.7321C116.148 49.6124 116.099 49.3992 116.062 49.0924C115.579 49.5937 115.003 49.8444 114.333 49.8444C113.735 49.8444 113.243 49.676 112.857 49.3393C112.476 48.9989 112.285 48.5687 112.285 48.0487C112.285 47.4164 112.525 46.9264 113.003 46.5785C113.486 46.2268 114.163 46.051 115.035 46.051H116.045V45.574C116.045 45.2111 115.936 44.923 115.719 44.7098C115.502 44.4928 115.183 44.3843 114.76 44.3843C114.389 44.3843 114.079 44.4779 113.828 44.6649C113.578 44.852 113.452 45.0783 113.452 45.3439H112.409C112.409 45.0409 112.515 44.7491 112.728 44.4685C112.945 44.1842 113.237 43.9597 113.604 43.7951C113.974 43.6305 114.38 43.5482 114.822 43.5482C115.521 43.5482 116.069 43.724 116.466 44.0757C116.862 44.4236 117.068 44.9043 117.083 45.5179V48.3124C117.083 48.8698 117.154 49.3132 117.296 49.6424V49.7321H116.208ZM114.485 48.9409C114.81 48.9409 115.119 48.8567 115.411 48.6884C115.703 48.5201 115.914 48.3012 116.045 48.0318V46.7861H115.231C113.959 46.7861 113.323 47.1583 113.323 47.9028C113.323 48.2283 113.432 48.4826 113.649 48.666C113.866 48.8493 114.144 48.9409 114.485 48.9409ZM123.132 44.5022H121.095V49.7321H120.057V44.5022H118.059V43.6604H123.132V44.5022ZM128.07 43.6604H129.109V49.7321H128.07V45.3046L125.27 49.7321H124.232V43.6604H125.27V48.0936L128.07 43.6604ZM138.463 48.2114L139.877 43.6604H140.988L138.547 50.6693C138.169 51.6794 137.569 52.1844 136.746 52.1844L136.549 52.1676L136.162 52.0946V51.2529L136.443 51.2753C136.794 51.2753 137.068 51.2042 137.262 51.0621C137.46 50.9199 137.623 50.6599 137.75 50.2821L137.98 49.6648L135.814 43.6604H136.948L138.463 48.2114ZM141.555 48.8848L141.914 48.4415C142.318 47.9177 142.548 47.1321 142.604 46.0846L142.7 43.6604H146.611V48.8848H147.391V51.5166H146.353V49.7321H142.116V51.5166H141.078L141.084 48.8848H141.555ZM142.784 48.8848H145.573V44.62H143.704L143.642 46.0678C143.579 47.2762 143.293 48.2152 142.784 48.8848ZM148.266 46.6402C148.266 46.0454 148.382 45.5104 148.614 45.0353C148.85 44.5602 149.175 44.1935 149.591 43.9354C150.01 43.6773 150.487 43.5482 151.022 43.5482C151.848 43.5482 152.516 43.8344 153.025 44.4068C153.538 44.9792 153.794 45.7405 153.794 46.6907V46.7636C153.794 47.3547 153.68 47.8859 153.451 48.3573C153.227 48.8249 152.903 49.1897 152.481 49.4516C152.062 49.7134 151.579 49.8444 151.033 49.8444C150.21 49.8444 149.542 49.5582 149.03 48.9858C148.521 48.4134 148.266 47.6559 148.266 46.7131V46.6402ZM149.31 46.7636C149.31 47.437 149.465 47.9776 149.776 48.3854C150.09 48.7931 150.509 48.997 151.033 48.997C151.56 48.997 151.979 48.7913 152.29 48.3798C152.6 47.9645 152.756 47.3846 152.756 46.6402C152.756 45.9743 152.597 45.4356 152.279 45.0241C151.964 44.6088 151.545 44.4012 151.022 44.4012C150.509 44.4012 150.096 44.6051 149.782 45.0128C149.467 45.4206 149.31 46.0042 149.31 46.7636ZM157.761 44.0084C158.524 44.0084 159.134 44.2646 159.591 44.7771C160.051 45.2859 160.281 45.9574 160.281 46.7917V46.8871C160.281 47.4595 160.17 47.972 159.95 48.4247C159.729 48.8736 159.411 49.2234 158.996 49.474C158.584 49.7209 158.109 49.8444 157.57 49.8444C156.755 49.8444 156.098 49.5732 155.601 49.0307C155.103 48.4845 154.854 47.7531 154.854 46.8366V46.3315C154.854 45.0559 155.09 44.042 155.561 43.2901C156.037 42.5381 156.736 42.0799 157.66 41.9152C158.184 41.8217 158.537 41.7076 158.721 41.5729C158.904 41.4383 158.996 41.2531 158.996 41.0174H159.849C159.849 41.485 159.742 41.8498 159.529 42.1117C159.319 42.3735 158.983 42.5587 158.519 42.6672L157.744 42.8412C157.127 42.9871 156.663 43.234 156.353 43.5819C156.046 43.9261 155.846 44.3862 155.752 44.9623C156.302 44.3263 156.972 44.0084 157.761 44.0084ZM157.559 44.8613C157.05 44.8613 156.646 45.0334 156.347 45.3776C156.048 45.718 155.898 46.1913 155.898 46.7973V46.8871C155.898 47.538 156.048 48.0543 156.347 48.4359C156.65 48.8137 157.058 49.0026 157.57 49.0026C158.087 49.0026 158.494 48.8119 158.794 48.4303C159.093 48.0487 159.243 47.4913 159.243 46.758C159.243 46.1856 159.091 45.7274 158.788 45.3832C158.489 45.0353 158.079 44.8613 157.559 44.8613ZM166.308 49.7321H165.269V47.1396H162.48V49.7321H161.437V43.6604H162.48V46.2923H165.269V43.6604H166.308V49.7321ZM167.705 46.6402C167.705 46.0454 167.821 45.5104 168.053 45.0353C168.288 44.5602 168.614 44.1935 169.029 43.9354C169.448 43.6773 169.925 43.5482 170.46 43.5482C171.287 43.5482 171.955 43.8344 172.463 44.4068C172.976 44.9792 173.232 45.7405 173.232 46.6907V46.7636C173.232 47.3547 173.118 47.8859 172.89 48.3573C172.665 48.8249 172.342 49.1897 171.919 49.4516C171.5 49.7134 171.018 49.8444 170.471 49.8444C169.648 49.8444 168.981 49.5582 168.468 48.9858C167.959 48.4134 167.705 47.6559 167.705 46.7131V46.6402ZM168.749 46.7636C168.749 47.437 168.904 47.9776 169.214 48.3854C169.529 48.7931 169.948 48.997 170.471 48.997C170.999 48.997 171.418 48.7913 171.728 48.3798C172.039 47.9645 172.194 47.3846 172.194 46.6402C172.194 45.9743 172.035 45.4356 171.717 45.0241C171.403 44.6088 170.984 44.4012 170.46 44.4012C169.948 44.4012 169.534 44.6051 169.22 45.0128C168.906 45.4206 168.749 46.0042 168.749 46.7636Z" fill="#282361"/>
</svg>
