<svg width="97" height="76" viewBox="0 0 97 76" fill="none" xmlns="http://www.w3.org/2000/svg">
<path d="M32.3812 50.8471H25.8579L30.3039 25.5068H50.0132C50.0132 25.5068 53.57 25.5068 55.3168 29.0636C57.0635 32.6204 59.9236 41.6594 59.9236 41.6594L62.9054 38.176L58.6114 25.5068H66.0214L71.3667 41.5112L83.362 25.5068H90.62L73.097 49.3658C71.5238 51.2949 67.8732 52.6749 66.751 49.2176L65.3861 44.327L61.2745 50.027C59.8356 52.0353 56.2123 52.1341 55.3472 50.027L52.3952 41.5112C52.3952 41.5112 49.6782 44.327 46.7142 44.327H34.2667L35.3433 38.1773H46.1632C50.5813 38.0538 51.7137 31.8794 47.3203 31.583H35.6131L32.3812 50.8471Z" fill="white"/>
<path d="M10.9468 23.9898H17.1617C17.1617 23.9898 44.4267 2.93975 59.0618 19.9802C50.6441 0.333582 17.966 15.9706 10.9468 23.9898Z" fill="white"/>
<path d="M61.2695 23.9901H65.2792C65.2792 23.9901 64.6775 -5.27999 24.5818 13.5655C62.673 -0.668695 61.2695 23.9901 61.2695 23.9901Z" fill="white"/>
<path d="M0.32373 48.6494H5.7362C5.7362 48.6494 9.9466 62.8836 32.6009 56.8688C5.3353 67.2941 0.32373 48.6494 0.32373 48.6494Z" fill="white"/>
<path d="M48.8398 48.6494H54.2529C54.2529 48.6494 18.968 81.2876 1.12573 54.3431C20.7724 73.509 48.8398 48.6494 48.8398 48.6494Z" fill="white"/>
</svg>
