<svg width="31" height="31" viewBox="0 0 31 31" fill="none" xmlns="http://www.w3.org/2000/svg">
<path fill-rule="evenodd" clip-rule="evenodd" d="M15.4998 18.4166C18.7215 18.4166 21.3332 15.805 21.3332 12.5833C21.3332 9.36163 18.7215 6.74996 15.4998 6.74996C12.2782 6.74996 9.6665 9.36163 9.6665 12.5833C9.6665 15.805 12.2782 18.4166 15.4998 18.4166ZM15.4998 15.5C17.1107 15.5 18.4165 14.1941 18.4165 12.5833C18.4165 10.9725 17.1107 9.66663 15.4998 9.66663C13.889 9.66663 12.5832 10.9725 12.5832 12.5833C12.5832 14.1941 13.889 15.5 15.4998 15.5Z" fill="#282361"/>
<path fill-rule="evenodd" clip-rule="evenodd" d="M24.1421 27.2479C27.7454 24.5926 30.0832 20.3193 30.0832 15.5C30.0832 7.44581 23.554 0.916626 15.4998 0.916626C7.44569 0.916626 0.916504 7.44581 0.916504 15.5C0.916504 20.3193 3.25423 24.5926 6.85758 27.2479C6.92387 27.2967 6.99059 27.345 7.05773 27.3927C7.7123 27.8582 8.40695 28.271 9.13549 28.625C11.0587 29.5593 13.2181 30.0833 15.4998 30.0833C17.7816 30.0833 19.941 29.5593 21.8642 28.625C21.9033 28.606 21.9423 28.5868 21.9812 28.5675C22.7415 28.1896 23.4642 27.7474 24.1421 27.2479ZM23.125 24.3301C25.6002 22.1908 27.1665 19.0283 27.1665 15.5C27.1665 9.05664 21.9432 3.83329 15.4998 3.83329C9.05652 3.83329 3.83317 9.05664 3.83317 15.5C3.83317 19.0283 5.39944 22.1908 7.87463 24.3301C9.3758 21.6706 12.2281 19.875 15.4998 19.875C18.7715 19.875 21.6239 21.6706 23.125 24.3301ZM20.6867 25.9531C19.7175 24.0754 17.7586 22.7916 15.4998 22.7916C13.2411 22.7916 11.2822 24.0754 10.313 25.9531C11.8754 26.7299 13.6366 27.1666 15.4998 27.1666C17.3631 27.1666 19.1243 26.7299 20.6867 25.9531Z" fill="#282361"/>
</svg>
