<svg width="28" height="34" viewBox="0 0 28 34" fill="none" xmlns="http://www.w3.org/2000/svg">
	<path d="M27.414 25.9194C26.9294 27.049 26.3307 28.1261 25.6272 29.1341C24.6875 30.4764 23.9157 31.4039 23.3242 31.9201C22.4055 32.7636 21.4185 33.1976 20.3632 33.2221C19.6072 33.2221 18.6937 33.0069 17.6297 32.5694C16.5622 32.1336 15.5822 31.9201 14.6845 31.9201C13.7447 31.9201 12.7367 32.1336 11.657 32.5694C10.579 33.0069 9.70747 33.2361 9.04072 33.2571C8.03097 33.3009 7.02122 32.8564 6.01497 31.9201C5.37272 31.3601 4.56947 30.3976 3.60522 29.0361C2.57272 27.5854 1.72397 25.8966 1.05897 23.9769C0.346716 21.8996 -0.0102844 19.8906 -0.0102844 17.9446C-0.0102844 15.7169 0.470966 13.7936 1.43522 12.1836C2.16453 10.9192 3.20717 9.86386 4.46272 9.11935C5.70078 8.37677 7.11412 7.97693 8.55772 7.96085C9.36272 7.96085 10.418 8.20935 11.7252 8.69935C13.0325 9.18935 13.8725 9.43785 14.2382 9.43785C14.5147 9.43785 15.444 9.1456 17.026 8.56635C18.5187 8.0291 19.7787 7.80685 20.8112 7.89435C23.6112 8.1201 25.713 9.2226 27.1112 11.2106C24.6087 12.7279 23.3715 14.8506 23.396 17.5754C23.417 19.6981 24.1887 21.4639 25.7007 22.8656C26.3692 23.5053 27.1491 24.0172 28.002 24.3759C27.8165 24.9131 27.6205 25.4259 27.414 25.9194ZM20.9967 0.665102C20.9967 2.3276 20.3877 3.8816 19.1785 5.31835C17.7155 7.02635 15.948 8.0151 14.0317 7.85935C14.0067 7.6503 13.9944 7.4399 13.995 7.22935C13.995 5.6316 14.688 3.9236 15.9252 2.52535C16.5412 1.81835 17.3252 1.2286 18.2755 0.759602C19.224 0.297602 20.12 0.0421021 20.9635 -0.00164795C20.9862 0.222352 20.9967 0.444602 20.9967 0.665102Z" fill="white" />
	<defs>
		<clipPath id="clip0">
			<rect width="28" height="34" fill="white" />
		</clipPath>
	</defs>
</svg>
