<svg width="31" height="31" viewBox="0 0 31 31" fill="none" xmlns="http://www.w3.org/2000/svg">
<path d="M28.0261 6.36981L28.7552 7.09891L30.8177 5.03641C30.9143 4.93971 30.9686 4.80858 30.9686 4.67186C30.9686 4.53513 30.9143 4.40401 30.8177 4.30731L28.7552 2.24481L28.0261 2.97391L29.2084 4.15623H23.2344V5.18748H29.2084L28.0261 6.36981Z" fill="white"/>
<path d="M24.9323 11.2239L25.6614 10.4948L24.4791 9.31248H30.4531V8.28123H24.4791L25.6614 7.09891L24.9323 6.36981L22.8698 8.43231C22.7732 8.52901 22.7189 8.66013 22.7189 8.79686C22.7189 8.93358 22.7732 9.06471 22.8698 9.16141L24.9323 11.2239Z" fill="white"/>
<path d="M30.3655 15.072C30 14.7053 29.5093 14.4904 28.992 14.4703C28.4746 14.4502 27.9688 14.6265 27.5759 14.9637C27.3956 14.6562 27.138 14.4011 26.8287 14.2238C26.5193 14.0466 26.169 13.9532 25.8125 13.9531C25.5819 13.9499 25.3527 13.9901 25.137 14.0717C24.898 14.1561 24.6775 14.2857 24.4873 14.4533C24.3059 14.1452 24.0474 13.8896 23.7374 13.7115C23.4273 13.5334 23.0763 13.439 22.7188 13.4375C22.3559 13.4386 21.9999 13.5365 21.6875 13.7211V5.1875C21.6875 4.64049 21.4702 4.11589 21.0834 3.72909C20.6966 3.3423 20.172 3.125 19.625 3.125C19.2621 3.12605 18.9061 3.22395 18.5938 3.40859V1.57812C18.5925 1.16824 18.4292 0.775502 18.1393 0.485672C17.8495 0.195841 17.4568 0.0324741 17.0469 0.03125H4.67188C4.26199 0.0324741 3.86925 0.195841 3.57942 0.485672C3.28959 0.775502 3.12622 1.16824 3.125 1.57812V11.8906H2.60938C1.92561 11.8906 1.26986 12.1622 0.786365 12.6457C0.302873 13.1292 0.03125 13.785 0.03125 14.4688V16.5777L1.0625 27.3852V30.4531C1.0625 30.5899 1.11682 30.721 1.21352 30.8177C1.31022 30.9144 1.44137 30.9688 1.57812 30.9688H12.9219C13.0586 30.9688 13.1898 30.9144 13.2865 30.8177C13.3832 30.721 13.4375 30.5899 13.4375 30.4531V27.5244L15.3556 24.7812H16.4642L17.0469 26.4158V30.4531C17.0469 30.5899 17.1012 30.721 17.1979 30.8177C17.2946 30.9144 17.4257 30.9688 17.5625 30.9688H27.875C28.0118 30.9688 28.1429 30.9144 28.2396 30.8177C28.3363 30.721 28.3906 30.5899 28.3906 30.4531V26.4158L30.7573 19.7848C30.8966 19.396 30.9681 18.9862 30.9688 18.5731V16.5312C30.969 16.2603 30.9158 15.992 30.8123 15.7416C30.7088 15.4912 30.5569 15.2637 30.3655 15.072ZM12.4062 29.9375H2.09375V27.875H12.4062V29.9375ZM12.6537 26.8438H2.04734L1.0625 16.5312V14.4688C1.06372 14.0589 1.22709 13.6661 1.51692 13.3763C1.80675 13.0865 2.19949 12.9231 2.60938 12.9219H6.21875C6.62901 12.9219 7.02246 13.0848 7.31256 13.3749C7.60265 13.665 7.76562 14.0585 7.76562 14.4688C7.76562 14.879 7.60265 15.2725 7.31256 15.5626C7.02246 15.8527 6.62901 16.0156 6.21875 16.0156H3.64062C3.50387 16.0156 3.37272 16.07 3.27602 16.1666C3.17932 16.2633 3.125 16.3945 3.125 16.5312V23.2344C3.12622 23.6443 3.28959 24.037 3.57942 24.3268C3.86925 24.6167 4.26199 24.78 4.67188 24.7812H14.0975L12.6537 26.8438ZM4.67188 23.75C4.53512 23.75 4.40397 23.6957 4.30727 23.599C4.21057 23.5023 4.15625 23.3711 4.15625 23.2344V21.6875H13.4375V20.6562H4.15625V17.0469H6.21875C6.90251 17.0469 7.55827 16.7753 8.04176 16.2918C8.52525 15.8083 8.79688 15.1525 8.79688 14.4688C8.79688 13.785 8.52525 13.1292 8.04176 12.6457C7.55827 12.1622 6.90251 11.8906 6.21875 11.8906H4.15625V1.57812C4.15625 1.44137 4.21057 1.31022 4.30727 1.21352C4.40397 1.11682 4.53512 1.0625 4.67188 1.0625H17.0469C17.1836 1.0625 17.3148 1.11682 17.4115 1.21352C17.5082 1.31022 17.5625 1.44137 17.5625 1.57812V12.1794C17.2494 11.9914 16.8913 11.8917 16.5261 11.8906C15.9809 11.892 15.4584 12.1092 15.0728 12.4947C14.6873 12.8802 14.4701 13.4027 14.4688 13.948V18.5731C14.4698 18.9878 14.5413 19.3993 14.6802 19.79L16.093 23.75H4.67188ZM19.625 29.9375H18.0781V26.8438H19.625V29.9375ZM22.2031 29.9375H20.6562V26.8438H22.2031V29.9375ZM24.7812 29.9375H23.2344V26.8438H24.7812V29.9375ZM27.3594 29.9375H25.8125V26.8438H27.3594V29.9375ZM29.9375 18.5731C29.9369 18.8682 29.8863 19.1611 29.788 19.4394L27.5141 25.8125H17.9234L15.6495 19.4445C15.5516 19.1644 15.501 18.8699 15.5 18.5731V13.948C15.5007 13.6745 15.61 13.4124 15.8039 13.2195C15.9977 13.0266 16.2603 12.9186 16.5338 12.9193C16.8073 12.92 17.0694 13.0293 17.2623 13.2232C17.4552 13.417 17.5632 13.6796 17.5625 13.9531V18.0781H18.5938V5.1875C18.5958 4.91462 18.7051 4.65349 18.898 4.46053C19.091 4.26757 19.3521 4.15827 19.625 4.15625C19.8983 4.15707 20.1601 4.26598 20.3533 4.4592C20.5465 4.65242 20.6554 4.91425 20.6562 5.1875V18.0781H21.6875V15.5C21.6895 15.2271 21.7988 14.966 21.9918 14.773C22.1847 14.5801 22.4459 14.4708 22.7188 14.4688C22.992 14.4696 23.2538 14.5785 23.4471 14.7717C23.6403 14.9649 23.7492 15.2267 23.75 15.5V18.0781H24.7812V16.0156C24.7813 15.8803 24.8083 15.7464 24.8605 15.6216C24.9127 15.4968 24.9892 15.3836 25.0855 15.2886C25.1945 15.1735 25.3312 15.0883 25.4825 15.0411C25.5883 15.0031 25.7 14.9839 25.8125 14.9844C26.0858 14.9852 26.3476 15.0941 26.5408 15.2873C26.734 15.4805 26.8429 15.7424 26.8438 16.0156V18.5938H27.875V16.5312C27.8758 16.258 27.9847 15.9962 28.1779 15.8029C28.3712 15.6097 28.633 15.5008 28.9062 15.5C29.1791 15.502 29.4403 15.6113 29.6332 15.8043C29.8262 15.9972 29.9355 16.2584 29.9375 16.5312V18.5731Z" fill="white"/>
<path d="M10.8594 2.09375C9.83957 2.09375 8.84266 2.39616 7.99472 2.96273C7.14678 3.52931 6.48589 4.33461 6.09562 5.27679C5.70536 6.21897 5.60325 7.25572 5.8022 8.25593C6.00116 9.25615 6.49224 10.1749 7.21336 10.896C7.93447 11.6171 8.85323 12.1082 9.85344 12.3072C10.8537 12.5061 11.8904 12.404 12.8326 12.0138C13.7748 11.6235 14.5801 10.9626 15.1466 10.1147C15.7132 9.26672 16.0156 8.26981 16.0156 7.25C16.0134 5.88315 15.4695 4.5729 14.503 3.60639C13.5365 2.63988 12.2262 2.09593 10.8594 2.09375ZM10.8594 11.375C10.0435 11.375 9.246 11.1331 8.56765 10.6798C7.8893 10.2266 7.36059 9.58231 7.04837 8.82857C6.73616 8.07482 6.65447 7.24542 6.81364 6.44525C6.9728 5.64508 7.36567 4.91008 7.94256 4.33318C8.51945 3.75629 9.25446 3.36342 10.0546 3.20426C10.8548 3.0451 11.6842 3.12679 12.4379 3.439C13.1917 3.75121 13.8359 4.27992 14.2892 4.95827C14.7424 5.63663 14.9844 6.43415 14.9844 7.25C14.9829 8.34356 14.5478 9.3919 13.7745 10.1652C13.0013 10.9384 11.9529 11.3735 10.8594 11.375Z" fill="white"/>
<path d="M12.4062 8.28125C12.4046 8.60021 12.3047 8.91093 12.1202 9.1711C11.9357 9.43128 11.6755 9.62829 11.375 9.73531V10.3438H10.3438V9.73531C10.0433 9.62829 9.78307 9.43128 9.59855 9.1711C9.41402 8.91093 9.31414 8.60021 9.3125 8.28125H10.3438C10.3438 8.38323 10.374 8.48292 10.4306 8.56772C10.4873 8.65251 10.5678 8.7186 10.6621 8.75763C10.7563 8.79665 10.8599 8.80686 10.96 8.78697C11.06 8.76707 11.1519 8.71796 11.224 8.64585C11.2961 8.57374 11.3452 8.48187 11.3651 8.38184C11.385 8.28182 11.3748 8.17815 11.3358 8.08393C11.2967 7.98971 11.2306 7.90918 11.1458 7.85252C11.061 7.79587 10.9614 7.76562 10.8594 7.76562C10.4966 7.76281 10.1464 7.63259 9.86989 7.39772C9.59341 7.16285 9.40827 6.83828 9.34684 6.48074C9.28541 6.12321 9.35159 5.75546 9.53382 5.44177C9.71605 5.12809 10.0027 4.88843 10.3438 4.76469V4.15625H11.375V4.76469C11.6755 4.87171 11.9357 5.06872 12.1202 5.3289C12.3047 5.58907 12.4046 5.89979 12.4062 6.21875H11.375C11.375 6.11677 11.3448 6.01708 11.2881 5.93228C11.2314 5.84749 11.1509 5.7814 11.0567 5.74237C10.9625 5.70335 10.8588 5.69314 10.7588 5.71303C10.6588 5.73293 10.5669 5.78204 10.4948 5.85415C10.4227 5.92626 10.3736 6.01814 10.3537 6.11816C10.3338 6.21818 10.344 6.32185 10.383 6.41607C10.422 6.51029 10.4881 6.59082 10.5729 6.64748C10.6577 6.70413 10.7574 6.73438 10.8594 6.73438C11.2693 6.7356 11.662 6.89897 11.9518 7.1888C12.2417 7.47863 12.405 7.87137 12.4062 8.28125Z" fill="white"/>
</svg>
