<svg width="33" height="33" viewBox="0 0 33 33" fill="none" xmlns="http://www.w3.org/2000/svg">
<path d="M11.8594 2.57812H7.73438V3.60938H11.8594V2.57812Z" fill="white"/>
<path d="M13.9219 2.57812H12.8906V3.60938H13.9219V2.57812Z" fill="white"/>
<path d="M6.70312 2.57812H5.67188V3.60938H6.70312V2.57812Z" fill="white"/>
<path d="M11.3438 29.3906H8.25V30.4219H11.3438V29.3906Z" fill="white"/>
<path d="M30.9375 9.79688H19.0781V3.09375C19.0781 1.67217 17.9216 0.515625 16.5 0.515625H3.09375C1.67217 0.515625 0.515625 1.67217 0.515625 3.09375V29.9062C0.515625 31.3278 1.67217 32.4844 3.09375 32.4844H16.5C17.9216 32.4844 19.0781 31.3278 19.0781 29.9062V24.2344H30.9375C31.7903 24.2344 32.4844 23.5403 32.4844 22.6875V11.3438C32.4844 10.4909 31.7903 9.79688 30.9375 9.79688ZM31.4531 11.3438V12.8906H13.9219V11.3438C13.9219 11.0591 14.1534 10.8281 14.4375 10.8281H30.9375C31.2216 10.8281 31.4531 11.0591 31.4531 11.3438ZM12.8906 20.3548C12.127 20.8679 11.2417 21.1406 10.3125 21.1406C7.75397 21.1406 5.67188 19.059 5.67188 16.5C5.67188 13.941 7.75397 11.8594 10.3125 11.8594C11.2417 11.8594 12.127 12.1321 12.8906 12.6447V20.3548ZM13.9219 13.9219H31.4531V15.9844H13.9219V13.9219ZM3.09375 1.54688H16.5C17.3528 1.54688 18.0469 2.24091 18.0469 3.09375V4.64062H1.54688V3.09375C1.54688 2.24091 2.24091 1.54688 3.09375 1.54688ZM16.5 31.4531H3.09375C2.24091 31.4531 1.54688 30.7591 1.54688 29.9062V28.3594H18.0469V29.9062C18.0469 30.7591 17.3528 31.4531 16.5 31.4531ZM18.0469 27.3281H1.54688V5.67188H18.0469V9.79688H17.0156V6.70312H2.57812V26.2969H17.0156V24.2344H18.0469V27.3281ZM30.9375 23.2031H16.5L15.9844 23.2506V25.2656H3.60938V7.73438H15.9844V9.79688H14.4375C13.5847 9.79688 12.8906 10.4909 12.8906 11.3438V11.4479C12.0981 11.0416 11.2221 10.8281 10.3125 10.8281C7.18523 10.8281 4.64062 13.3727 4.64062 16.5C4.64062 19.6273 7.18523 22.1719 10.3125 22.1719C11.2221 22.1719 12.0976 21.9584 12.8906 21.5521V22.6875C12.8906 23.5403 13.5847 24.2344 14.4375 24.2344H14.9531V23.2031H14.4375C14.1534 23.2031 13.9219 22.9721 13.9219 22.6875V17.0156H31.4531V22.6875C31.4531 22.9721 31.2216 23.2031 30.9375 23.2031Z" fill="white"/>
<path d="M28.3594 18.0469C27.9825 18.0469 27.6339 18.1557 27.3297 18.333C27.0157 18.1485 26.6614 18.0469 26.2969 18.0469C25.1594 18.0469 24.2344 18.9719 24.2344 20.1094C24.2344 21.2468 25.1594 22.1719 26.2969 22.1719C26.6614 22.1719 27.0157 22.0703 27.3297 21.8857C27.6339 22.0631 27.9825 22.1719 28.3594 22.1719C29.4968 22.1719 30.4219 21.2468 30.4219 20.1094C30.4219 18.9719 29.4968 18.0469 28.3594 18.0469ZM25.2656 20.1094C25.2656 19.5406 25.7281 19.0781 26.2969 19.0781C26.3948 19.0781 26.4815 19.0946 26.5624 19.1173C26.3985 19.4128 26.2969 19.7479 26.2969 20.1094C26.2969 20.4708 26.3985 20.806 26.5624 21.1014C26.4815 21.1241 26.3948 21.1406 26.2969 21.1406C25.7281 21.1406 25.2656 20.6781 25.2656 20.1094ZM28.3594 21.1406C27.7906 21.1406 27.3281 20.6781 27.3281 20.1094C27.3281 19.5406 27.7906 19.0781 28.3594 19.0781C28.9281 19.0781 29.3906 19.5406 29.3906 20.1094C29.3906 20.6781 28.9281 21.1406 28.3594 21.1406Z" fill="white"/>
<path d="M15.9844 21.1406H14.9531V22.1719H15.9844V21.1406Z" fill="white"/>
<path d="M18.0469 21.1406H17.0156V22.1719H18.0469V21.1406Z" fill="white"/>
<path d="M20.1094 21.1406H19.0781V22.1719H20.1094V21.1406Z" fill="white"/>
<path d="M22.1719 21.1406H21.1406V22.1719H22.1719V21.1406Z" fill="white"/>
<path d="M22.1719 19.0781H14.9531V20.1094H22.1719V19.0781Z" fill="white"/>
<path d="M9.79688 12.8906V14.0167C9.19823 14.2302 8.76562 14.7974 8.76562 15.4688C8.76562 16.3216 9.45966 17.0156 10.3125 17.0156C10.5966 17.0156 10.8281 17.2466 10.8281 17.5312C10.8281 17.8159 10.5966 18.0469 10.3125 18.0469C10.0284 18.0469 9.79688 17.8159 9.79688 17.5312H8.76562C8.76562 18.2026 9.19823 18.7698 9.79688 18.9833V20.1094H10.8281V18.9833C11.4268 18.7698 11.8594 18.2026 11.8594 17.5312C11.8594 16.6784 11.1653 15.9844 10.3125 15.9844C10.0284 15.9844 9.79688 15.7534 9.79688 15.4688C9.79688 15.1841 10.0284 14.9531 10.3125 14.9531C10.5966 14.9531 10.8281 15.1841 10.8281 15.4688H11.8594C11.8594 14.7974 11.4268 14.2302 10.8281 14.0167V12.8906H9.79688Z" fill="white"/>
</svg>
