<svg xmlns="http://www.w3.org/2000/svg"><defs><clipPath id="clip0"><path d="M0 0h34v34H0z"/></clipPath><clipPath id="clip0"><path d="M0 0h28v34H0z"/></clipPath><clipPath id="clip0"><path d="M0 0h25v25H0z"/></clipPath><clipPath id="clip0"><path d="M0 0h25v25H0z"/></clipPath></defs><symbol id="arrow" viewBox="0 0 11 7"><path d="M.742 1.68L5.5 6.44l4.758-4.758L9.138.56 5.5 4.2 1.86.56.74 1.68z"/></symbol><symbol id="icon-facebook" viewBox="0 0 28 33"><g id="icon_facebook"><g id="Group"><path id="Vector" d="M21 2.75h-3.5c-1.547 0-3.03.71-4.125 1.974-1.094 1.265-1.708 2.98-1.708 4.767v4.045h-3.5v5.393h3.5v10.786h4.666V18.93h3.5L21 13.536h-4.667V9.491c0-.357.123-.7.342-.953.219-.253.516-.395.825-.395H21V2.75z" stroke-width="1.1" stroke-linecap="round" stroke-linejoin="round"/></g></g></symbol><symbol id="icon-html-academy" viewBox="0 0 27 34"><path d="M13.643.016L13.5 0 0 1.407v24.606L13.5 34 27 26.013V1.407L13.643.016zm11.591 25L13.5 31.956 1.766 25.015V14.93l11.685 6.916.02 1.253-8.017-4.743-.011 1.225 8.046 4.809.02 1.286-8.045-4.758-.01 1.226L13.5 26.95l8.124-4.833V16.91l3.62-2.15-.01 10.256zm0-11.564l-3.22 1.88-1.482.875-7.065-4.187-.011 1.225 6.04 3.573-.053.031-.13.076-.86.492-4.986-2.948-.011 1.225 3.936 2.328-.933.61-.021.012-2.971-1.742-.011 1.225 1.947 1.135-1.988 1.186-11.618-6.872 11.638-6.958 11.8 6.834zm0-1.225L13.44 5.31 1.766 12.22V2.99L13.5 1.764 25.234 2.99v9.237z"/></symbol><symbol id="icon-instagram" viewBox="0 0 23 23"><path id="Vector" d="M11.477.09c1.917 0 3.482.022 4.695.067 1.033.045 1.954.225 2.763.54a5.727 5.727 0 012.021 1.302 5.732 5.732 0 011.303 2.022c.314.808.494 1.729.539 2.762.045 1.213.067 2.778.067 4.694 0 1.917-.022 3.482-.067 4.695-.045 1.033-.225 1.954-.54 2.763a5.733 5.733 0 01-1.302 2.021 5.733 5.733 0 01-2.021 1.303c-.809.314-1.73.494-2.763.539-1.213.045-2.778.067-4.695.067-1.916 0-3.48-.022-4.694-.067-1.033-.045-1.954-.225-2.762-.54a5.732 5.732 0 01-2.022-1.302 5.733 5.733 0 01-1.303-2.021c-.314-.809-.494-1.73-.539-2.763a131.868 131.868 0 01-.067-4.695c0-1.916.022-3.48.067-4.694.045-1.033.225-1.954.54-2.762a5.713 5.713 0 011.302-2.022A5.731 5.731 0 014.021.696C4.829.382 5.75.202 6.783.157 7.996.112 9.561.09 11.477.09zm0 1.482c-1.991 0-3.616.023-4.873.068a7.21 7.21 0 00-2.247.426c-1.078.45-1.841 1.213-2.29 2.291a7.21 7.21 0 00-.427 2.247 142.032 142.032 0 00-.068 4.873c0 1.992.023 3.617.068 4.875a7.21 7.21 0 00.426 2.246c.45 1.078 1.213 1.841 2.291 2.29a7.211 7.211 0 002.247.427c1.257.045 2.882.068 4.873.068 1.992 0 3.617-.023 4.875-.068a7.211 7.211 0 002.246-.426c1.078-.45 1.841-1.213 2.29-2.291a7.211 7.211 0 00.427-2.246c.045-1.258.068-2.883.068-4.875 0-1.991-.023-3.616-.068-4.873a7.211 7.211 0 00-.426-2.247c-.45-1.078-1.213-1.841-2.291-2.29a7.21 7.21 0 00-2.246-.427 142.035 142.035 0 00-4.875-.068zm0 14.465c1.258 0 2.333-.445 3.224-1.336.89-.891 1.336-1.966 1.336-3.224 0-1.257-.445-2.332-1.336-3.223-.891-.89-1.966-1.336-3.224-1.336-1.257 0-2.332.445-3.223 1.336-.89.891-1.336 1.966-1.336 3.223 0 1.258.445 2.333 1.336 3.224.891.89 1.966 1.336 3.223 1.336zm0-10.4c1.618 0 2.995.57 4.133 1.708s1.707 2.515 1.707 4.132c0 1.618-.569 2.995-1.707 4.133-1.138 1.138-2.515 1.707-4.133 1.707-1.617 0-2.994-.569-4.132-1.707-1.138-1.138-1.707-2.515-1.707-4.133 0-1.617.569-2.994 1.707-4.132 1.138-1.138 2.515-1.707 4.132-1.707zm7.458-.224c0 .374-.135.693-.405.955s-.599.393-.988.393a1.3 1.3 0 01-.955-.393 1.3 1.3 0 01-.393-.955c0-.39.131-.719.393-.988.262-.27.58-.404.955-.404.374 0 .7.138.977.415.277.277.416.603.416.977z"/></symbol><symbol id="icon-vkontakte" viewBox="0 0 23 16"><path d="M.07 3.993c0-.622.423-.957 1.27-1.006l3.26.018c.22 0 .365.091.438.274.336.915.711 1.704 1.127 2.369.416.664.96 1.43 1.63 2.295a.3.3 0 00.285.165.276.276 0 00.24-.128l.067-.201.021-3.165c0-.219-.062-.365-.186-.438-.124-.074-.353-.128-.689-.165-.263-.037-.394-.17-.394-.402a.21.21 0 01.022-.11c.306-.793 1.182-1.189 2.626-1.189l1.226-.018c.554 0 1.014.116 1.379.347.364.232.547.598.547 1.098v4.151a.562.562 0 00.284.092c.22 0 .409-.11.57-.33 1.604-1.877 2.472-3.133 2.604-3.767a.29.29 0 01.044-.092c.102-.182.27-.34.503-.475.233-.134.438-.226.613-.274a.507.507 0 01.197-.037h3.392l.219.018c.292 0 .518.116.678.348a.63.63 0 01.12.238c.022.085.037.17.044.256.008.085.011.134.011.146v.128c-.102.5-.36 1.033-.777 1.6-.415.567-.944 1.18-1.586 1.838-.642.659-1.044 1.092-1.204 1.299-.131.146-.197.28-.197.402 0 .098.058.208.175.33l3.195 3.365a.939.939 0 01.263.64c0 .28-.131.512-.394.695a1.826 1.826 0 01-.941.31l-.372.02h-3.327a.794.794 0 00-.087.008.802.802 0 01-.088.01c-.32 0-.62-.116-.897-.348-.102-.098-.788-.817-2.057-2.158a1.106 1.106 0 00-.307-.238c-.058.195-.135.475-.23.841a63.68 63.68 0 01-.207.787l-.066.31c-.146.427-.452.684-.92.769l-.306.018H9.743c-1.21 0-2.418-.463-3.622-1.39-1.203-.927-2.287-2.124-3.25-3.594-.963-1.469-1.86-3.18-2.691-5.13a1.254 1.254 0 01-.11-.53zM13.223 8.73a1.66 1.66 0 01-.831-.21c-.248-.14-.372-.333-.372-.577V3.737c0-.244-.073-.418-.22-.522-.145-.103-.4-.155-.765-.155l-1.248.036c-.627 0-1.101.092-1.422.275.642.256.963.67.963 1.243v3.22c-.03.304-.175.557-.438.758a1.405 1.405 0 01-.875.302c-.438 0-.774-.177-1.007-.53C5.87 6.925 5.024 5.559 4.469 4.267l-.197-.476-2.91-.018c-.19 0-.296.01-.318.028-.022.018-.033.07-.033.155 0 .11.015.226.044.348l.46 1.024c1.225 2.646 2.556 4.73 3.994 6.255 1.437 1.524 2.848 2.286 4.234 2.286h2.189c.088 0 .153-.021.197-.064.044-.043.08-.125.11-.247l.043-.183.416-1.61c.117-.219.219-.365.306-.438a.86.86 0 01.57-.201c.35 0 .707.176 1.072.53l1.86 1.975c.117.159.24.238.372.238h3.611c.438 0 .657-.091.657-.274a.312.312 0 00-.066-.183l-3.173-3.31c-.248-.257-.372-.531-.372-.824 0-.292.116-.573.35-.841.19-.244.558-.65 1.105-1.216a28.203 28.203 0 001.434-1.591c.408-.494.678-.942.81-1.345l.065-.237a.243.243 0 01-.022-.12c0-.054-.007-.1-.022-.137H17.82a1.199 1.199 0 00-.525.33l-.131.347c-.365.841-1.32 2.14-2.867 3.896a1.672 1.672 0 01-1.073.366z"/></symbol><symbol id="functions-pay-way-ico" viewBox="0 0 34 34"><path d="M26.629 0H7.37C6.364 0 5.545.82 5.545 1.826v15.298a.498.498 0 10.996 0V5.047h20.918v23.906H6.541v-9.505a.498.498 0 10-.996 0v12.726c0 1.007.82 1.826 1.826 1.826h14.771a.498.498 0 000-.996H7.372a.831.831 0 01-.831-.83v-2.225h20.918v2.225a.83.83 0 01-.83.83h-2.162a.498.498 0 100 .996h2.162c1.007 0 1.826-.82 1.826-1.826V1.826C28.455.82 27.635 0 26.63 0zM6.54 4.05V1.827a.83.83 0 01.83-.83h19.26a.83.83 0 01.83.83v2.225H6.541z"/><path d="M13.527 13.261a20.82 20.82 0 01-1.083-.437.275.275 0 01-.098-.258c.01-.07.062-.242.316-.319.56-.168 1.08.241 1.095.253a.498.498 0 00.638-.764 2.531 2.531 0 00-.983-.472v-.28a.498.498 0 00-.996 0v.298l-.04.012c-.55.165-.94.598-1.015 1.13-.072.5.144.979.564 1.253.136.088 1.075.452 1.257.52.175.063.574.245.521.54-.04.222-.31.452-.694.452-.395 0-.776-.16-1.018-.426a.498.498 0 00-.738.669c.3.33.712.567 1.163.68v.3a.498.498 0 10.996 0v-.27c.653-.141 1.162-.614 1.272-1.23.099-.555-.153-1.28-1.157-1.65zm5.093 1.926h-2.55a.498.498 0 000 .996h2.55a.498.498 0 100-.996zm3.465 0h-1.222a.498.498 0 100 .996h1.222a.498.498 0 000-.996z"/><path d="M25.799 17.468V7.977c0-.726-.59-1.316-1.316-1.316H9.517c-.725 0-1.316.59-1.316 1.316v9.491c0 .726.59 1.316 1.316 1.316h14.966c.726 0 1.316-.59 1.316-1.316zm-16.602 0V7.977a.32.32 0 01.32-.32h14.966a.32.32 0 01.32.32v9.491a.32.32 0 01-.32.32H9.517a.32.32 0 01-.32-.32zm5.533 4.657a2.444 2.444 0 00-2.44 2.442 2.444 2.444 0 002.44 2.44h4.54a2.444 2.444 0 002.44-2.44 2.444 2.444 0 00-2.44-2.442h-4.54zm5.985 2.442c0 .796-.649 1.445-1.445 1.445h-4.54a1.447 1.447 0 01-1.445-1.445c0-.797.649-1.445 1.445-1.445h4.54c.796 0 1.445.648 1.445 1.445zm-5.565 6.412a.498.498 0 000 .996h3.7a.498.498 0 100-.997h-3.7zm2.196-28.954h-.692a.498.498 0 100 .996h.692a.498.498 0 000-.996z"/><path d="M21.874 12.274a.957.957 0 01-.681-.282L20.202 11a.957.957 0 01-.282-.68c0-.258.1-.5.282-.681l.991-.992a.957.957 0 01.68-.282c.258 0 .5.1.682.282l.991.992a.956.956 0 01.282.68c0 .258-.1.5-.282.681l-.991.992a.957.957 0 01-.681.282zm.023-.987h.001zm-.967-.968l.944.945.944-.945-.944-.944-.944.944z"/></symbol><symbol id="functions-pay-way-payment-monitoring" viewBox="0 0 35 35"><path d="M11.343 13.945a7.11 7.11 0 1012.314-7.108 7.11 7.11 0 00-12.314 7.108zm3.15-8.764A6.015 6.015 0 1112.29 13.4a5.979 5.979 0 012.202-8.218z"/><path d="M33.36 28.438h-1.11c.362-.47.56-1.047.562-1.641V10.391a2.738 2.738 0 00-2.735-2.735h-3.7a9.28 9.28 0 00-17.748 0H4.922a2.738 2.738 0 00-2.734 2.735v16.406c.002.594.199 1.17.56 1.64H1.642a.547.547 0 00-.547.547v2.188a2.738 2.738 0 002.734 2.734h27.344a2.738 2.738 0 002.734-2.734v-2.188a.547.547 0 00-.547-.546zM30.077 8.75a1.64 1.64 0 011.64 1.64v16.407a1.638 1.638 0 01-1.488 1.625c.08-.365.085-.744.012-1.11a.54.54 0 00.383-.515V10.391a.546.546 0 00-.547-.547H26.77a9.282 9.282 0 00-.13-1.094h3.438zM8.23 10.938a9.26 9.26 0 006.864 8.433 9.189 9.189 0 005.56-.236l1.44 2.496-.473.273a.547.547 0 00-.2.747l2.078 3.6H5.47V10.937h2.76zm14.378 7.207l1.381 2.391-.947.547-1.376-2.383c.164-.081.324-.164.482-.258.159-.093.308-.197.46-.297zm.034 4.433l1.422-.82.947-.547.472-.274 3.506 6.07v.003a1.641 1.641 0 01-2.844 1.64l-3.503-6.072zm3.515-2.662a.547.547 0 00-.747-.2l-.474.273-1.444-2.5a9.309 9.309 0 003.281-6.551h2.758V25.76l-3.374-5.845zM13.398 3.286a8.154 8.154 0 016.225-.819 8.203 8.203 0 011.979 15.028 8.205 8.205 0 01-12.284-6.02 8.203 8.203 0 014.08-8.188zM3.281 10.392a1.64 1.64 0 011.64-1.64h3.437a9.29 9.29 0 00-.132 1.093H4.922a.547.547 0 00-.547.547v16.406a.547.547 0 00.547.547H24.13l.632 1.094H4.922a1.64 1.64 0 01-1.64-1.641V10.391zm16.407 19.14v.547a.547.547 0 01-.547.547h-3.282a.547.547 0 01-.546-.547v-.547h4.374zm13.125 1.641a1.641 1.641 0 01-1.641 1.64H3.828a1.64 1.64 0 01-1.64-1.64v-1.64h12.03v.546a1.64 1.64 0 001.641 1.64h3.282a1.64 1.64 0 001.64-1.64v-.547h4.649a2.718 2.718 0 004.277 0h3.105v1.641z"/><path d="M19.688 13.672h1.64a.547.547 0 00.547-.547V7.656a.547.547 0 00-.547-.547h-1.64a.547.547 0 00-.547.547v5.469a.547.547 0 00.547.547zm.546-5.469h.547v4.375h-.547V8.203zm-3.828 5.469h1.64a.547.547 0 00.548-.547V9.297a.547.547 0 00-.547-.547h-1.64a.547.547 0 00-.548.547v3.828a.547.547 0 00.547.547zm.547-3.828h.547v2.734h-.547V9.844zm-3.828 3.828h1.64a.547.547 0 00.547-.547v-2.188a.547.547 0 00-.546-.546h-1.641a.547.547 0 00-.547.546v2.188a.547.547 0 00.547.547zm.547-2.188h.547v1.094h-.547v-1.094zM8.203 22.969h1.094a.547.547 0 000-1.094H8.203a.547.547 0 100 1.094zm3.281 0h8.204a.547.547 0 000-1.094h-8.204a.547.547 0 100 1.094zm-3.281-2.188h1.094a.547.547 0 100-1.093H8.203a.547.547 0 100 1.093zm3.281 0h2.188a.547.547 0 000-1.093h-2.188a.547.547 0 100 1.093zm-3.281 4.375h1.094a.547.547 0 100-1.093H8.203a.547.547 0 100 1.093zm3.281 0h8.204a.547.547 0 000-1.093h-8.204a.547.547 0 100 1.093z"/></symbol><symbol id="functions-pay-way-payment-offline-version" viewBox="0 0 34 34"><path d="M12.219 2.656h-4.25V3.72h4.25V2.656zm2.125 0H13.28V3.72h1.063V2.656zm-7.438 0H5.844V3.72h1.062V2.656zm4.782 27.625H8.5v1.063h3.188V30.28z"/><path d="M31.875 10.094H19.656V3.188A2.66 2.66 0 0017 .53H3.187A2.66 2.66 0 00.531 3.187v27.625a2.66 2.66 0 002.656 2.657H17a2.66 2.66 0 002.656-2.657V24.97h12.219c.879 0 1.594-.715 1.594-1.594V11.687c0-.878-.715-1.593-1.594-1.593zm.531 1.594v1.593H14.344v-1.594a.53.53 0 01.531-.53h17a.53.53 0 01.531.53zm-19.125 9.284a4.732 4.732 0 01-2.656.81A4.787 4.787 0 015.844 17a4.787 4.787 0 014.781-4.781c.957 0 1.87.28 2.656.809v7.944zm1.063-6.628h18.062v2.125H14.344v-2.125zM3.188 1.594H17c.879 0 1.594.715 1.594 1.593v1.594h-17V3.188c0-.88.715-1.594 1.593-1.594zM17 32.406H3.187a1.596 1.596 0 01-1.593-1.593v-1.594h17v1.593c0 .88-.715 1.594-1.594 1.594zm1.594-4.25h-17V5.844h17v4.25H17.53V6.906H2.656v20.188h14.875v-2.125h1.063v3.187zm13.281-4.25H17l-.531.05v2.075H3.719V7.97h12.75v2.125h-1.594c-.879 0-1.594.715-1.594 1.594v.107a5.798 5.798 0 00-2.656-.639A5.85 5.85 0 004.781 17a5.85 5.85 0 005.844 5.844 5.8 5.8 0 002.656-.639v1.17c0 .879.715 1.594 1.594 1.594h.531v-1.063h-.531a.532.532 0 01-.531-.531v-5.844h18.062v5.844a.532.532 0 01-.531.531z"/><path d="M29.219 18.594c-.389 0-.748.112-1.061.295a2.098 2.098 0 00-1.064-.295 2.127 2.127 0 00-2.125 2.125c0 1.172.953 2.125 2.125 2.125.375 0 .74-.105 1.064-.295a2.09 2.09 0 001.06.295 2.127 2.127 0 002.126-2.125 2.127 2.127 0 00-2.125-2.125zm-3.188 2.125c0-.586.477-1.063 1.063-1.063.1 0 .19.017.273.04a2.1 2.1 0 00-.273 1.023c0 .372.104.717.273 1.022a.998.998 0 01-.273.04 1.064 1.064 0 01-1.063-1.062zm3.188 1.062a1.064 1.064 0 010-2.125 1.064 1.064 0 010 2.125zm-12.75 0h-1.063v1.063h1.063V21.78zm2.125 0H17.53v1.063h1.063V21.78zm2.125 0h-1.063v1.063h1.063V21.78zm2.125 0H21.78v1.063h1.063V21.78zm0-2.125h-7.438v1.063h7.438v-1.063zm-12.75-6.375v1.16a1.592 1.592 0 00-1.063 1.496c0 .88.715 1.594 1.594 1.594a.532.532 0 11-.531.532H9.03a1.59 1.59 0 001.063 1.495v1.16h1.062v-1.16a1.592 1.592 0 001.063-1.495c0-.88-.715-1.594-1.594-1.594a.532.532 0 11.531-.532h1.063a1.59 1.59 0 00-1.063-1.495v-1.16h-1.062z"/></symbol><symbol id="functions-pay-way-payment-save-money" viewBox="0 0 34 34"><g clip-path="url(#clip0)"><path d="M17.444 18.556a.53.53 0 00-.191-.007 1.268 1.268 0 01-1.122-1.257.558.558 0 00-1.115 0 2.386 2.386 0 001.754 2.297v.558a.558.558 0 001.116 0v-.524a2.381 2.381 0 00-.488-4.712 1.266 1.266 0 111.266-1.266.558.558 0 001.115 0 2.386 2.386 0 00-1.893-2.332v-.507a.558.558 0 00-1.116 0v.541a2.382 2.382 0 00.628 4.679 1.265 1.265 0 01.046 2.53z"/><path d="M9.31 15.511a8.087 8.087 0 108.088-8.087A8.096 8.096 0 009.31 15.51zm8.088-6.972a6.972 6.972 0 11-6.972 6.972 6.98 6.98 0 016.972-6.972z"/><path d="M28.234 24.973l-4.369 2.064a3.558 3.558 0 00-3.033-1.872l-4.033-.11a4.259 4.259 0 01-1.833-.474l-.41-.212a7.238 7.238 0 00-6.705.006l.025-.93a.558.558 0 00-.542-.572l-4.422-.122a.557.557 0 00-.573.542l-.267 9.705a.558.558 0 00.542.573l4.423.122h.015c.302 0 .55-.24.558-.543l.012-.464 1.15-.615a1.97 1.97 0 011.47-.161l6.86 1.925a7.339 7.339 0 001.544.164 7.44 7.44 0 003.11-.677.523.523 0 00.068-.039l9.948-6.434a.558.558 0 00.182-.743 2.817 2.817 0 00-3.72-1.133zM3.202 32.471l.237-8.59 3.307.091-.236 8.59-3.308-.09zm18.05-.145a6.323 6.323 0 01-3.866.431l-6.842-1.92a3.084 3.084 0 00-2.3.25l-.586.315.157-5.71a6.13 6.13 0 016.228-.333l.41.212c.717.37 1.508.575 2.315.598l4.034.111a2.446 2.446 0 012.324 1.95l-6.007-.166a.558.558 0 00-.031 1.115l6.63.182h.015c.302 0 .55-.24.557-.542a3.544 3.544 0 00-.053-.724l4.48-2.117a1.704 1.704 0 011.94.264l-9.404 6.083zm-3.297-26.47V.558a.558.558 0 00-1.115 0v5.298a.558.558 0 001.115 0zm4.183 0v-2.51a.558.558 0 00-1.115 0v2.51a.558.558 0 001.115 0zm-8.365 0v-2.51a.558.558 0 00-1.116 0v2.51a.558.558 0 001.116 0z"/></g></symbol><symbol id="functions-pay-way-payment" viewBox="0 0 33 33"><path d="M10.679 2.728a.54.54 0 00-.733 0 .596.596 0 00-.108.17.486.486 0 000 .392c.026.062.063.12.108.17a.523.523 0 00.733 0 .597.597 0 00.108-.17.486.486 0 000-.392.597.597 0 00-.108-.17z"/><path d="M30.422 12.89h-.516V8.767a1.547 1.547 0 00-1.547-1.547h-8.765V2.58a1.547 1.547 0 00-1.547-1.548H2.578a1.547 1.547 0 00-1.547 1.547v27.844a1.547 1.547 0 001.547 1.547h15.469a1.547 1.547 0 001.547-1.547v-4.64h8.765a1.547 1.547 0 001.547-1.548V20.11h.516a1.547 1.547 0 001.547-1.547v-4.125a1.547 1.547 0 00-1.547-1.546zm-1.547-4.124v.515H10.828V8.25H28.36a.516.516 0 01.516.516zM6.703 20.625a4.115 4.115 0 01-2.578-.905v-6.44a4.126 4.126 0 112.578 7.345zM2.063 2.578a.516.516 0 01.515-.515h15.469a.516.516 0 01.515.515v1.547h-16.5V2.578zm0 27.844v-1.547h7.105a1.523 1.523 0 000 2.063h-6.59a.516.516 0 01-.515-.516zm8.25 0a.516.516 0 110-1.032.516.516 0 010 1.032zm8.25 0a.516.516 0 01-.516.515h-6.59a1.523 1.523 0 000-2.062h7.105v1.547zm0-2.578h-16.5V5.156h16.5V7.22h-7.735V6.187H9.797v6.198a5.125 5.125 0 00-5.672-.347v-1.726H3.094v12.376h1.031v-1.726a5.125 5.125 0 005.672-.347v6.198h1.031V25.78h7.735v2.063zm10.312-3.61a.516.516 0 01-.516.516H10.83v-1.031h18.046v.515zm0-1.547H10.828v-3.106a5.118 5.118 0 000-6.162v-3.107h18.047v2.579h-4.64a3.61 3.61 0 100 7.218h4.64v2.578zm2.063-4.125a.516.516 0 01-.516.516h-6.188a2.578 2.578 0 110-5.156h6.188a.516.516 0 01.515.515v4.126z"/><path d="M24.234 14.953a1.547 1.547 0 100 3.093 1.547 1.547 0 000-3.093zm0 2.063a.515.515 0 110-1.031.515.515 0 010 1.03zM6.703 14.953a.516.516 0 01.516.516H8.25a1.547 1.547 0 00-1.031-1.452v-.61H6.187v.61a1.544 1.544 0 00.516 2.999.516.516 0 11-.516.515h-1.03a1.547 1.547 0 001.03 1.452v.61H7.22v-.61a1.544 1.544 0 00-.516-2.999.516.516 0 110-1.03z"/></symbol><symbol id="functions-pay-way-qr-code" viewBox="0 0 34 34"><path d="M19.656 18.992a.664.664 0 100-1.328.664.664 0 000 1.328zm-14.609 0a.664.664 0 100-1.328.664.664 0 000 1.328zM.664 8.367a.664.664 0 00.664-.664V1.328h6.375a.664.664 0 100-1.328H.664A.664.664 0 000 .664v7.04c0 .366.297.663.664.663zm7.703 24.969a.664.664 0 00-.664-.664H1.328v-6.375a.664.664 0 10-1.328 0v7.039c0 .367.297.664.664.664h7.04a.664.664 0 00.663-.664zm24.969-7.703a.664.664 0 00-.664.664v6.375h-6.375a.664.664 0 100 1.328h7.039a.664.664 0 00.664-.664v-7.04a.664.664 0 00-.664-.663zm0-25.633h-7.04a.664.664 0 100 1.328h6.376v6.375a.664.664 0 101.328 0V.664A.664.664 0 0033.336 0z"/><path d="M4.383 28.953c0 .367.297.664.664.664h6.64a.664.664 0 00.665-.664v-6.64a.664.664 0 00-.665-.665h-6.64a.664.664 0 00-.664.665v6.64zm1.328-5.976h5.312v5.312H5.711v-5.312zm5.977-18.594H5.046a.664.664 0 00-.664.664v6.64c0 .367.297.665.664.665h6.64a.664.664 0 00.665-.665v-6.64a.664.664 0 00-.665-.664zm-.665 6.64H5.711V5.711h5.312v5.312zm18.594-5.976a.664.664 0 00-.664-.664h-6.64a.664.664 0 00-.665.664v6.64c0 .367.298.665.665.665h6.64a.664.664 0 00.664-.665v-6.64zm-1.328 5.976h-5.312V5.711h5.312v5.312zm1.328 17.93v-6.64a.664.664 0 00-.664-.665h-6.64a.664.664 0 00-.665.665v6.64c0 .367.298.664.665.664h6.64a.664.664 0 00.664-.664zm-1.328-.664h-5.312v-5.312h5.312v5.312z"/><path d="M9.031 24.305H7.703a.664.664 0 00-.664.664v1.328c0 .367.297.664.664.664h1.328a.664.664 0 00.664-.664v-1.328a.664.664 0 00-.664-.664zM7.703 9.695h1.328a.664.664 0 00.664-.664V7.703a.664.664 0 00-.664-.664H7.703a.664.664 0 00-.664.664v1.328c0 .367.297.664.664.664zm17.266 0h1.328a.664.664 0 00.664-.664V7.703a.664.664 0 00-.664-.664h-1.328a.664.664 0 00-.664.664v1.328c0 .367.297.664.664.664zm0 17.265h1.328a.664.664 0 00.664-.663v-1.328a.664.664 0 00-.664-.664h-1.328a.664.664 0 00-.664.664v1.328c0 .367.297.664.664.664zM7.04 18.328c0 .367.296.664.663.664h8.633v3.32a.664.664 0 101.328 0v-3.984a.664.664 0 00-.664-.664H7.703a.664.664 0 00-.664.664zm4.648-1.992a.664.664 0 100-1.328H5.046a.664.664 0 100 1.328h6.64zm2.656 0H17a.664.664 0 100-1.328h-2.656a.664.664 0 100 1.328zm0-11.953a.664.664 0 00-.664.664v6.64c0 .367.297.665.664.665h4.648v3.32c0 .367.297.664.664.664h2.657a.664.664 0 100-1.328H20.32v-3.32a.664.664 0 00-.664-.665h-4.648V5.047a.664.664 0 00-.664-.664zm14.609 10.625H24.97a.664.664 0 100 1.328h3.984a.664.664 0 100-1.328zm0 2.656h-6.64a.664.664 0 100 1.328h6.64a.664.664 0 100-1.328zM17 24.305h-2.656a.664.664 0 00-.664.664v3.984a.664.664 0 101.328 0v-3.32H17a.664.664 0 100-1.328z"/><path d="M18.992 28.29H17a.664.664 0 100 1.327h2.656a.664.664 0 00.664-.664v-7.969a.664.664 0 10-1.328 0v7.305zm.664-18.595a.664.664 0 00.664-.664V5.047a.664.664 0 10-1.328 0v3.32H17a.664.664 0 100 1.328h2.656z"/></symbol><symbol id="logo-desktop" viewBox="0 0 190 76"><path d="M36.381 50.847h-6.523l4.446-25.34h19.71s3.556 0 5.303 3.557c1.746 3.556 4.607 12.595 4.607 12.595l2.981-3.483-4.294-12.67h7.41l5.346 16.005 11.995-16.004h7.258L77.097 49.366c-1.573 1.929-5.224 3.309-6.346-.148l-1.365-4.891-4.111 5.7c-1.44 2.008-5.063 2.107-5.928 0l-2.952-8.516s-2.717 2.816-5.68 2.816H38.266l1.076-6.15h10.82c4.418-.123 5.55-6.297 1.157-6.594H39.613l-3.232 19.264zM14.947 23.99h6.215s27.265-21.05 41.9-4.01C54.644.334 21.966 15.97 14.947 23.99z"/><path d="M65.27 23.99h4.009s-.602-29.27-40.697-10.425C66.672-.669 65.268 23.99 65.268 23.99zM4.324 48.65h5.412s4.21 14.234 26.865 8.219c-27.266 10.425-32.277-8.22-32.277-8.22z"/><path d="M52.84 48.65h5.413S22.968 81.287 5.125 54.343C24.772 73.51 52.84 48.65 52.84 48.65zm45.679-9.704h2.818l.722-4.322h2.362c3.079 0 5.161-1.822 5.597-4.49.436-2.655-1.002-4.517-4.028-4.517h-5.259l-2.212 13.329zm3.917-6.58l.742-4.445h1.901c1.627 0 2.251.879 2.037 2.213-.215 1.321-1.146 2.232-2.779 2.232h-1.901zm8.706 6.58l1.497-3.04h4.809l.482 3.04h3.02l-2.382-13.328h-3.632l-6.813 13.328h3.019zm2.577-5.24l2.486-5.043h.105l.794 5.044h-3.385zm8.906-8.089l3.437 8.617-.788 4.712h2.799l.787-4.712 6.287-8.617h-3.157l-3.976 5.74h-.143l-2.089-5.74h-3.157zm19.09 13.329h2.746l3.989-8.714h.104l1.081 8.714h2.746l6.026-13.328h-3.078l-3.735 9.28h-.118l-.898-9.28h-2.635l-3.964 9.26h-.11l-.677-9.26h-3.078l1.601 13.328zm16.925 0l1.497-3.04h4.809l.482 3.04h3.019l-2.382-13.328h-3.631l-6.814 13.328h3.02zm2.577-5.24l2.486-5.043h.104l.794 5.044h-3.384zm8.906-8.089l3.436 8.617-.787 4.712h2.798l.788-4.712 6.286-8.617h-3.156l-3.976 5.74h-.144l-2.089-5.74h-3.156zm-65.975 24.115h-1.038V44.52h-2.794v5.213h-1.044V43.66h4.876v6.072zm6.644-6.072v6.072h-1.043V44.52h-2.065l-.124 2.273c-.067 1.043-.243 1.79-.527 2.239-.281.449-.728.682-1.341.701h-.416v-.914l.298-.023c.336-.037.578-.232.724-.584.145-.351.239-1.002.28-1.952l.112-2.599h4.102zm5.416 6.072c-.06-.12-.109-.333-.146-.64-.483.502-1.059.752-1.729.752-.598 0-1.09-.168-1.476-.505a1.656 1.656 0 01-.572-1.29c0-.633.24-1.123.718-1.47.483-.352 1.16-.528 2.032-.528h1.01v-.477c0-.363-.109-.651-.326-.864-.217-.217-.536-.326-.959-.326-.371 0-.681.094-.932.28-.25.188-.376.414-.376.68h-1.043c0-.303.106-.595.319-.876.217-.284.509-.508.876-.673.37-.165.776-.247 1.218-.247.699 0 1.247.176 1.644.528.396.348.602.828.617 1.442v2.794c0 .558.071 1.001.213 1.33v.09h-1.088zm-1.723-.791c.325 0 .634-.084.926-.253.292-.168.503-.387.634-.656v-1.246h-.814c-1.272 0-1.908.372-1.908 1.117 0 .325.109.58.326.763.217.183.495.275.836.275zm8.647-4.439h-2.037v5.23h-1.038v-5.23h-1.998v-.842h5.073v.842zm4.938-.842h1.039v6.072h-1.039v-4.427l-2.8 4.427h-1.038V43.66h1.038v4.434l2.8-4.434zm10.393 4.551l1.414-4.55h1.111l-2.441 7.008c-.378 1.01-.978 1.515-1.801 1.515l-.197-.016-.387-.073v-.842l.281.022c.351 0 .625-.07.819-.213.198-.142.361-.402.488-.78l.23-.617-2.166-6.005h1.134l1.515 4.551zm3.092.674l.359-.444c.404-.523.634-1.309.69-2.356l.096-2.425h3.911v5.225h.78v2.632h-1.038v-1.785h-4.237v1.785h-1.038l.006-2.632h.471zm1.229 0h2.789V44.62h-1.869l-.062 1.448c-.063 1.208-.349 2.147-.858 2.817zm5.482-2.245c0-.595.116-1.13.348-1.605a2.64 2.64 0 01.977-1.1 2.673 2.673 0 011.431-.387c.826 0 1.494.286 2.003.859.513.572.769 1.334.769 2.284v.073a3.6 3.6 0 01-.343 1.593 2.557 2.557 0 01-.97 1.095c-.419.261-.902.392-1.448.392-.823 0-1.491-.286-2.003-.858-.509-.573-.764-1.33-.764-2.273v-.073zm1.044.124c0 .673.155 1.214.466 1.621.314.408.733.612 1.257.612.527 0 .946-.206 1.257-.617.31-.416.466-.995.466-1.74 0-.666-.159-1.204-.477-1.616a1.5 1.5 0 00-1.257-.623 1.49 1.49 0 00-1.24.612c-.315.408-.472.991-.472 1.75zm8.451-2.756c.763 0 1.373.257 1.83.77.46.508.69 1.18.69 2.014v.095c0 .572-.111 1.085-.331 1.538a2.472 2.472 0 01-.954 1.049c-.412.247-.887.37-1.426.37-.815 0-1.472-.27-1.969-.813-.498-.547-.747-1.278-.747-2.194v-.506c0-1.275.236-2.289.707-3.04.476-.753 1.175-1.211 2.099-1.376.524-.093.877-.207 1.061-.342a.652.652 0 00.275-.556h.853c0 .468-.107.833-.32 1.095-.21.261-.546.447-1.01.555l-.775.174c-.617.146-1.081.393-1.391.74-.307.345-.507.805-.601 1.381.55-.636 1.22-.954 2.009-.954zm-.202.853c-.509 0-.913.172-1.212.517-.299.34-.449.813-.449 1.42v.09c0 .65.15 1.166.449 1.548.303.378.711.567 1.223.567.517 0 .924-.191 1.224-.573.299-.381.449-.939.449-1.672 0-.572-.152-1.03-.455-1.375-.299-.348-.709-.522-1.229-.522zm8.749 4.871h-1.039V47.14h-2.789v2.592h-1.043V43.66h1.043v2.632h2.789V43.66h1.039v6.072zm1.397-3.092c0-.595.116-1.13.348-1.605.235-.475.561-.841.976-1.1a2.673 2.673 0 011.431-.387c.827 0 1.495.286 2.003.859.513.572.769 1.334.769 2.284v.073c0 .59-.114 1.122-.342 1.593a2.56 2.56 0 01-.971 1.095c-.419.261-.901.392-1.448.392-.823 0-1.49-.286-2.003-.858-.509-.573-.763-1.33-.763-2.273v-.073zm1.044.124c0 .673.155 1.214.465 1.621a1.51 1.51 0 001.257.612c.528 0 .947-.206 1.257-.617.311-.416.466-.995.466-1.74 0-.666-.159-1.204-.477-1.616a1.497 1.497 0 00-1.257-.623 1.49 1.49 0 00-1.24.612c-.314.408-.471.991-.471 1.75z"/></symbol><symbol id="logo-mobile" viewBox="0 0 97 76"><path d="M32.381 50.847h-6.523l4.446-25.34h19.71s3.556 0 5.303 3.557c1.746 3.556 4.607 12.595 4.607 12.595l2.981-3.483-4.294-12.67h7.41l5.346 16.005 11.995-16.004h7.258L73.097 49.366c-1.573 1.929-5.224 3.309-6.346-.148l-1.365-4.891-4.111 5.7c-1.44 2.008-5.063 2.107-5.928 0l-2.952-8.516s-2.717 2.816-5.68 2.816H34.266l1.076-6.15h10.82c4.418-.123 5.55-6.298 1.157-6.594H35.613l-3.232 19.264zM10.947 23.99h6.215s27.265-21.05 41.9-4.01C50.644.334 17.966 15.97 10.947 23.99z"/><path d="M61.27 23.99h4.01s-.603-29.27-40.698-10.424C62.673-.67 61.27 23.99 61.27 23.99zM.324 48.65h5.412s4.21 14.234 26.865 8.219C5.335 67.294.324 48.649.324 48.649z"/><path d="M48.84 48.65h5.413S18.968 81.287 1.126 54.342C20.772 73.51 48.84 48.65 48.84 48.65z"/></symbol><symbol id="menu-icon-close" viewBox="0 0 21 21"><path d="M20.708 2.348L18.652.292 10.5 8.444 2.348.292.292 2.348 8.444 10.5.292 18.652l2.056 2.056 8.152-8.152 8.152 8.152 2.056-2.056-8.152-8.152 8.152-8.152z"/></symbol><symbol id="menu-icon-open" viewBox="0 0 27 19"><path d="M9.125 3.667V.75h17.5v2.917h-17.5zm-8.75 7.291h26.25V8.042H.375v2.916zm8.75 7.292h17.5v-2.917h-17.5v2.917z"/></symbol><symbol id="user-user-icon" viewBox="0 0 31 31"><path fill-rule="evenodd" clip-rule="evenodd" d="M15.5 18.417a5.833 5.833 0 100-11.667 5.833 5.833 0 000 11.667zm0-2.917a2.917 2.917 0 100-5.833 2.917 2.917 0 000 5.833z"/><path fill-rule="evenodd" clip-rule="evenodd" d="M24.142 27.248A14.563 14.563 0 0030.083 15.5C30.083 7.446 23.554.917 15.5.917S.917 7.446.917 15.5a14.563 14.563 0 006.14 11.893 14.525 14.525 0 008.442 2.69 14.525 14.525 0 008.643-2.835zm-1.017-2.918a11.64 11.64 0 004.041-8.83c0-6.443-5.223-11.667-11.666-11.667-6.443 0-11.667 5.224-11.667 11.667a11.64 11.64 0 004.042 8.83 8.747 8.747 0 017.625-4.455 8.747 8.747 0 017.625 4.455zm-2.438 1.623a5.833 5.833 0 00-5.187-3.161 5.833 5.833 0 00-5.187 3.161 11.618 11.618 0 005.187 1.214c1.863 0 3.624-.437 5.187-1.214z"/></symbol><symbol id="apple-store-icon" viewBox="0 0 28 34"><path d="M27.414 25.92a18.054 18.054 0 01-1.787 3.214c-.94 1.342-1.711 2.27-2.303 2.786-.919.844-1.905 1.278-2.96 1.302-.757 0-1.67-.215-2.734-.653-1.068-.435-2.048-.649-2.945-.649-.94 0-1.948.214-3.028.65-1.078.437-1.95.666-2.616.687-1.01.044-2.02-.4-3.026-1.337-.642-.56-1.446-1.522-2.41-2.884-1.032-1.45-1.881-3.14-2.546-5.06-.712-2.076-1.07-4.085-1.07-6.031 0-2.228.482-4.151 1.446-5.761a8.5 8.5 0 013.028-3.065 8.137 8.137 0 014.095-1.158c.805 0 1.86.248 3.167.738 1.308.49 2.148.739 2.513.739.277 0 1.206-.292 2.788-.872 1.493-.537 2.753-.76 3.785-.672 2.8.226 4.902 1.329 6.3 3.317-2.502 1.517-3.74 3.64-3.715 6.364.021 2.123.793 3.889 2.305 5.29a7.578 7.578 0 002.301 1.51 25.85 25.85 0 01-.588 1.544zM20.997.664c0 1.663-.61 3.217-1.819 4.653-1.463 1.708-3.23 2.697-5.146 2.541a5.181 5.181 0 01-.037-.63c0-1.597.693-3.305 1.93-4.704.616-.707 1.4-1.296 2.35-1.765.949-.462 1.845-.718 2.689-.762.022.224.033.447.033.667z"/></symbol><symbol id="electronic-transfers" viewBox="0 0 33 33"><path d="M10.679 2.728a.54.54 0 00-.733 0 .596.596 0 00-.108.17.486.486 0 000 .392c.026.062.063.12.108.17a.523.523 0 00.733 0 .597.597 0 00.108-.17.488.488 0 000-.392.597.597 0 00-.108-.17z"/><path d="M30.422 12.89h-.516V8.767a1.547 1.547 0 00-1.547-1.547h-8.765V2.58a1.547 1.547 0 00-1.547-1.548H2.578a1.547 1.547 0 00-1.547 1.547v27.844a1.547 1.547 0 001.547 1.547h15.469a1.547 1.547 0 001.547-1.547v-4.64h8.765a1.547 1.547 0 001.547-1.548V20.11h.516a1.547 1.547 0 001.547-1.547v-4.125a1.547 1.547 0 00-1.547-1.546zm-1.547-4.124v.515H10.828V8.25H28.36a.516.516 0 01.516.516zM6.703 20.625a4.115 4.115 0 01-2.578-.905v-6.44a4.126 4.126 0 112.578 7.345zM2.063 2.578a.516.516 0 01.515-.515h15.469a.516.516 0 01.515.515v1.547h-16.5V2.578zm0 27.844v-1.547h7.105a1.523 1.523 0 000 2.063h-6.59a.516.516 0 01-.515-.516zm8.25 0a.516.516 0 110-1.032.516.516 0 010 1.032zm8.25 0a.516.516 0 01-.516.515h-6.59a1.523 1.523 0 000-2.062h7.105v1.547zm0-2.578h-16.5V5.156h16.5V7.22h-7.735V6.187H9.797v6.198a5.125 5.125 0 00-5.672-.347v-1.726H3.094v12.376h1.031v-1.726a5.125 5.125 0 005.672-.347v6.198h1.031V25.78h7.735v2.063zm10.312-3.61a.516.516 0 01-.516.516H10.83v-1.031h18.046v.515zm0-1.547H10.828v-3.106a5.118 5.118 0 000-6.162v-3.107h18.047v2.579h-4.64a3.61 3.61 0 100 7.218h4.64v2.578zm2.063-4.125a.516.516 0 01-.516.516h-6.188a2.578 2.578 0 110-5.156h6.188a.516.516 0 01.515.515v4.126z"/><path d="M24.234 14.953a1.547 1.547 0 100 3.093 1.547 1.547 0 000-3.093zm0 2.063a.515.515 0 110-1.031.515.515 0 010 1.03zM6.703 14.953a.516.516 0 01.516.516H8.25a1.547 1.547 0 00-1.031-1.452v-.61H6.187v.61a1.544 1.544 0 00.516 2.999.516.516 0 11-.516.515h-1.03a1.547 1.547 0 001.03 1.452v.61H7.22v-.61a1.544 1.544 0 00-.516-2.999.516.516 0 110-1.03z"/></symbol><symbol id="google-play-icon" viewBox="0 0 34 34"><path d="M21.602 15.559L6.946.863l18.647 10.705-3.991 3.991zM3.122 0C2.257.452 1.68 1.275 1.68 2.344V31.65c0 1.07.578 1.893 1.441 2.344l17.04-17L3.12 0zm28.235 14.981l-3.911-2.264L23.083 17l4.363 4.283 3.99-2.264c1.196-.95 1.196-3.088-.079-4.038zM6.947 33.137l18.646-10.705-3.991-3.991L6.946 33.137z"/></symbol><symbol id="money-transfers" viewBox="0 0 31 31"><path d="M28.026 6.37l.73.729 2.062-2.063a.516.516 0 000-.729l-2.063-2.062-.729.729 1.182 1.182h-5.974v1.031h5.974L28.026 6.37zm-3.094 4.854l.73-.73-1.183-1.182h5.974v-1.03H24.48l1.182-1.183-.729-.73-2.062 2.063a.516.516 0 000 .73l2.062 2.062z"/><path d="M30.366 15.072a2.052 2.052 0 00-2.79-.108 2.045 2.045 0 00-1.764-1.01 1.81 1.81 0 00-.675.118 1.98 1.98 0 00-.65.381 2.062 2.062 0 00-1.768-1.015 2.04 2.04 0 00-1.032.283V5.187a2.062 2.062 0 00-2.062-2.062 2.038 2.038 0 00-1.031.284v-1.83A1.552 1.552 0 0017.047.03H4.672a1.552 1.552 0 00-1.547 1.547V11.89h-.516a2.578 2.578 0 00-2.578 2.578v2.109l1.032 10.807v3.068a.516.516 0 00.515.516h11.344a.516.516 0 00.515-.516v-2.929l1.919-2.743h1.108l.583 1.635v4.037a.516.516 0 00.515.516h10.313a.516.516 0 00.516-.516v-4.037l2.366-6.631c.14-.389.211-.799.212-1.212V16.53a2.063 2.063 0 00-.604-1.459zm-17.96 14.866H2.094v-2.063h10.312v2.063zm.248-3.094H2.047L1.062 16.53v-2.06a1.552 1.552 0 011.547-1.547h3.61a1.547 1.547 0 110 3.094H3.64a.516.516 0 00-.516.515v6.703a1.551 1.551 0 001.547 1.547h9.425l-1.443 2.063zM4.672 23.75a.516.516 0 01-.516-.516v-1.547h9.282v-1.03H4.155v-3.61H6.22a2.578 2.578 0 100-5.156H4.156V1.578a.516.516 0 01.516-.516h12.375a.516.516 0 01.515.516V12.18a2.025 2.025 0 00-1.036-.288 2.063 2.063 0 00-2.057 2.057v4.625c0 .415.072.826.211 1.217l1.413 3.96H4.672zm14.953 6.188h-1.547v-3.094h1.547v3.093zm2.578 0h-1.547v-3.094h1.547v3.093zm2.578 0h-1.547v-3.094h1.547v3.093zm2.578 0h-1.547v-3.094h1.547v3.093zm2.578-11.365c0 .295-.05.588-.149.866l-2.274 6.373h-9.59l-2.274-6.367a2.668 2.668 0 01-.15-.872v-4.625a1.031 1.031 0 012.063.005v4.125h1.03V5.188a1.04 1.04 0 011.032-1.032 1.034 1.034 0 011.031 1.032v12.89h1.032V15.5a1.039 1.039 0 011.03-1.031A1.035 1.035 0 0123.75 15.5v2.578h1.031v-2.062a1.023 1.023 0 01.305-.727.927.927 0 01.397-.248.964.964 0 01.33-.057 1.034 1.034 0 011.03 1.032v2.578h1.032V16.53a1.035 1.035 0 011.031-1.031 1.039 1.039 0 011.032 1.031v2.042z"/><path d="M10.86 2.094a5.156 5.156 0 105.156 5.156 5.165 5.165 0 00-5.157-5.156zm0 9.281a4.125 4.125 0 110-8.25 4.125 4.125 0 010 8.25z"/><path d="M12.406 8.281a1.552 1.552 0 01-1.031 1.454v.609h-1.031v-.609a1.552 1.552 0 01-1.031-1.454h1.03a.516.516 0 10.516-.515 1.547 1.547 0 01-.515-3.001v-.609h1.031v.609a1.552 1.552 0 011.031 1.454h-1.031a.515.515 0 10-.516.515 1.551 1.551 0 011.547 1.547z"/></symbol><symbol id="payment" viewBox="0 0 33 33"><path d="M11.86 2.578H7.733V3.61h4.125V2.58zm2.062 0H12.89V3.61h1.03V2.58zm-7.219 0H5.672V3.61h1.031V2.58zm4.641 26.812H8.25v1.032h3.094V29.39z"/><path d="M30.938 9.797h-11.86V3.094A2.581 2.581 0 0016.5.516H3.094A2.581 2.581 0 00.516 3.094v26.812a2.581 2.581 0 002.578 2.578H16.5a2.581 2.581 0 002.578-2.578v-5.672h11.86c.852 0 1.546-.694 1.546-1.547V11.345c0-.853-.694-1.547-1.547-1.547zm.515 1.547v1.547H13.922v-1.547c0-.285.231-.516.515-.516h16.5c.285 0 .516.231.516.516zm-18.562 9.01a4.593 4.593 0 01-2.579.787 4.646 4.646 0 01-4.64-4.641 4.646 4.646 0 014.64-4.64c.93 0 1.815.272 2.579.785v7.71zm1.03-6.432h17.532v2.062H13.922v-2.062zM3.095 1.547H16.5c.853 0 1.547.694 1.547 1.547V4.64h-16.5V3.094c0-.853.694-1.547 1.547-1.547zM16.5 31.453H3.094a1.549 1.549 0 01-1.547-1.547V28.36h16.5v1.547c0 .853-.694 1.547-1.547 1.547zm1.547-4.125h-16.5V5.672h16.5v4.125h-1.031V6.703H2.578v19.594h14.438v-2.063h1.03v3.094zm12.89-4.125H16.5l-.516.048v2.015H3.61V7.734h12.375v2.063h-1.546c-.853 0-1.547.694-1.547 1.547v.104a5.627 5.627 0 00-2.579-.62A5.679 5.679 0 004.641 16.5a5.679 5.679 0 005.671 5.672c.91 0 1.786-.214 2.579-.62v1.136c0 .852.694 1.546 1.546 1.546h.516v-1.03h-.515a.516.516 0 01-.516-.517v-5.671h17.531v5.672a.516.516 0 01-.515.515z"/><path d="M28.36 18.047c-.377 0-.726.109-1.03.286a2.037 2.037 0 00-1.033-.286 2.065 2.065 0 00-2.063 2.062c0 1.138.925 2.063 2.063 2.063.364 0 .719-.102 1.033-.286.304.177.653.286 1.03.286a2.065 2.065 0 002.062-2.063 2.065 2.065 0 00-2.063-2.062zm-3.094 2.062c0-.568.462-1.03 1.03-1.03.099 0 .186.016.266.038-.164.296-.265.63-.265.992s.101.697.265.992a.966.966 0 01-.265.04 1.032 1.032 0 01-1.031-1.032zm3.093 1.032a1.032 1.032 0 010-2.063 1.032 1.032 0 010 2.063zm-12.375-.001h-1.03v1.032h1.03V21.14zm2.063 0h-1.031v1.032h1.03V21.14zm2.063 0h-1.032v1.032h1.031V21.14zm2.062 0H21.14v1.032h1.03V21.14zm0-2.062h-7.219v1.031h7.219v-1.03zM9.797 12.89v1.127a1.545 1.545 0 00-1.031 1.452c0 .853.694 1.547 1.546 1.547a.516.516 0 11-.515.515H8.766c0 .672.432 1.239 1.03 1.452v1.126h1.032v-1.126a1.545 1.545 0 001.031-1.452c0-.853-.694-1.547-1.546-1.547a.516.516 0 11.515-.515h1.031c0-.672-.432-1.239-1.03-1.452V12.89H9.796z"/></symbol><symbol id="arrow-bottom" viewBox="0 0 11 7"><path d="M.742 1.68L5.5 6.44l4.758-4.758L9.138.56 5.5 4.2 1.86.56.74 1.68z"/></symbol><symbol id="arrow-payment-mobile" viewBox="0 0 14 8"><path d="M.99 1.702L7 7.712l6.01-6.01L11.596.288 7 4.884 2.404.288.99 1.702z"/></symbol><symbol id="electric-power" viewBox="0 0 35 35"><path d="M21.508 12.031H19.93l.48-4.314a.546.546 0 00-.953-.424l-4.374 4.922a.547.547 0 00.408.91h1.577l-.48 4.315a.547.547 0 00.953.423l4.375-4.921a.547.547 0 00-.41-.91zm-3.642 3.82l.357-3.212a.548.548 0 00-.543-.608h-.97l2.424-2.726-.357 3.213a.545.545 0 00.543.607h.97l-2.424 2.727z"/><path d="M31.078 13.125C31.078 6.189 25.436.547 18.5.547c-6.936 0-12.578 5.642-12.578 12.578a12.565 12.565 0 008.203 11.796v1.329h-.547a.547.547 0 00-.547.547v4.101a1.916 1.916 0 001.914 1.915h.82v.273a1.369 1.369 0 001.368 1.367h2.734a1.368 1.368 0 001.367-1.367v-.273h.82a1.916 1.916 0 001.915-1.915v-4.101a.547.547 0 00-.547-.547h-.547v-1.329a12.565 12.565 0 008.203-11.796zm-10.937 19.96a.273.273 0 01-.274.274h-2.734a.274.274 0 01-.274-.273v-.273h3.282v.273zm2.734-2.187a.821.821 0 01-.82.82h-7.11a.821.821 0 01-.82-.82v-3.554h8.75v3.554zm-6.016-11.402a7.127 7.127 0 003.282 0v6.754h-1.094v-1.64a.547.547 0 10-1.094 0v1.64H16.86v-6.754zm-4.375-6.918a6.016 6.016 0 116.016 6.016 6.023 6.023 0 01-6.016-6.016zm9.67 11.438a.546.546 0 00-.373.518v1.716h-.547v-7.11a7.108 7.108 0 10-5.469 0v7.11h-.546v-1.716a.546.546 0 00-.373-.518 11.474 11.474 0 01-7.83-10.891c0-6.333 5.151-11.484 11.484-11.484s11.484 5.151 11.484 11.484a11.474 11.474 0 01-7.83 10.891z"/><path d="M21.234 27.89h-5.468a.547.547 0 00-.547.547v2.188a.547.547 0 00.547.547h5.468a.547.547 0 00.547-.547v-2.188a.547.547 0 00-.547-.546zm-.547 2.188h-4.375v-1.094h4.375v1.094z"/></symbol><symbol id="payment-taxes" viewBox="0 0 35 35"><path d="M29.167 0h-21a2.917 2.917 0 00-2.863 2.387A2.917 2.917 0 002.917 5.25v26.833A2.92 2.92 0 005.833 35h21a2.917 2.917 0 002.863-2.387 2.917 2.917 0 002.387-2.863V2.917A2.92 2.92 0 0029.167 0zm-.584 32.083c0 .965-.785 1.75-1.75 1.75h-21c-.965 0-1.75-.785-1.75-1.75V5.25c0-.965.785-1.75 1.75-1.75h17.5v4.667c0 .322.262.583.584.583h4.666v23.333zM24.5 7.583V4.325l3.259 3.258H24.5zm6.417 22.167c0 .76-.49 1.401-1.167 1.643V8.167a.58.58 0 00-.172-.413l-5.248-5.25a.58.58 0 00-.413-.17H6.524a1.748 1.748 0 011.643-1.167h21c.964 0 1.75.785 1.75 1.75V29.75z"/><path d="M16.333 8.75c-4.503 0-8.166 3.663-8.166 8.167 0 4.503 3.663 8.166 8.166 8.166 4.504 0 8.167-3.663 8.167-8.166 0-4.504-3.663-8.167-8.167-8.167zm0 15.167c-3.86 0-7-3.14-7-7s3.14-7 7-7 7 3.14 7 7-3.14 7-7 7z"/><path d="M18.183 13.092l-4.667 7 .97.648 4.668-7-.971-.648zm1.067 3.825c-.965 0-1.75.785-1.75 1.75 0 .964.785 1.75 1.75 1.75S21 19.63 21 18.667c0-.965-.785-1.75-1.75-1.75zm0 2.333a.584.584 0 11.001-1.168.584.584 0 01-.001 1.168zm-5.833-5.833c-.965 0-1.75.785-1.75 1.75 0 .964.785 1.75 1.75 1.75s1.75-.786 1.75-1.75c0-.965-.785-1.75-1.75-1.75zm0 2.333a.584.584 0 110-1.168.584.584 0 010 1.168zm6.003 10.088l-3.087 3.087-1.337-1.337-.825.825 1.75 1.75a.582.582 0 00.825 0l3.5-3.5-.825-.825z"/></symbol><symbol id="traffic-police-fines" viewBox="0 0 35 29"><path d="M34.983 9.151a.681.681 0 00-.367-.462l-5.285-2.578a.68.68 0 00-.299-.069.67.67 0 00-.614.375c-.166.339-.025.769.314.905l4.523 2.215-3.991 5.066c-2.177.535-4.86.905-7.791 1.078.317-.425.47-.824.47-1.217V11.28a.684.684 0 00-.36-.603l-3.76-2.01a.687.687 0 00-.646 0l-3.76 2.01a.684.684 0 00-.36.603v3.184c0 .393.153.794.47 1.22-2.931-.174-5.615-.541-7.79-1.076L1.744 9.546 17.5 1.861l5.703 2.782a.68.68 0 00.914-.314.68.68 0 00.032-.523.68.68 0 00-.347-.392L17.799.486a.696.696 0 00-.598 0L.384 8.689a.68.68 0 00-.237 1.038l4.512 5.722-.01 2.494c0 .087.016.17.045.247l1.034 2.51a12.691 12.691 0 004.689 5.73 12.69 12.69 0 007.083 2.152c2.53 0 4.98-.744 7.083-2.152a12.691 12.691 0 004.689-5.73l1.035-2.512a.68.68 0 00.044-.245l-.01-2.493 4.512-5.723a.681.681 0 00.13-.576zm-20.56 2.539l3.077-1.645 3.076 1.645v2.774c0 .019-.014.426-1.145 1.308-.13.1-1.586 1.069-1.931 1.264-.345-.195-1.801-1.163-1.931-1.264-1.13-.882-1.145-1.29-1.145-1.308V11.69zm13.585 8.49A11.33 11.33 0 0117.5 27.215 11.329 11.329 0 016.992 20.18l-.523-1.27c3.08.641 6.935.99 11.031.99 4.096 0 7.951-.349 11.031-.99l-.523 1.27zM17.5 18.533c-4.34 0-8.39-.398-11.482-1.123l.006-1.332c1.391.31 2.961.56 4.681.743 1.407.15 2.876.25 4.389.303.043.031 2.05 1.276 2.09 1.297a.68.68 0 00.633 0c.04-.02 2.046-1.266 2.09-1.297a61.576 61.576 0 004.388-.303c1.72-.183 3.29-.433 4.681-.742l.006 1.331c-3.092.726-7.142 1.123-11.482 1.123z"/><path d="M26.266 6.06a.684.684 0 100-1.367.684.684 0 000 1.368zM6.227 10.495a.684.684 0 00-1.216.624c.047.092 1.175 2.256 3.246 2.553a.684.684 0 00.194-1.353c-1.36-.196-2.21-1.797-2.224-1.824zm19.743 2.597a.684.684 0 00.774.58c2.07-.298 3.198-2.461 3.245-2.553a.683.683 0 00-1.216-.624c-.008.016-.86 1.628-2.224 1.824a.684.684 0 00-.58.773z"/></symbol><symbol id="arrow-slider" viewBox="0 0 8 14"><path d="M6.298.99L.288 7l6.01 6.01 1.414-1.414L3.116 7l4.596-4.596L6.298.99z"/></symbol><symbol id="fb-icon" viewBox="0 0 25 25"><path d="M14.436 25V13.597h3.826l.574-4.445h-4.4V6.314c0-1.286.356-2.163 2.203-2.163l2.352-.001V.174C18.584.121 17.188 0 15.563 0 12.17 0 9.847 2.071 9.847 5.874v3.278H6.009v4.445h3.838V25h4.59z"/></symbol><symbol id="instagram-icon" viewBox="0 0 25 25"><g clip-path="url(#clip0)"><path d="M12.504 6.081a6.414 6.414 0 00-6.414 6.415 6.414 6.414 0 006.414 6.415 6.414 6.414 0 006.415-6.415 6.414 6.414 0 00-6.415-6.415zm0 10.579a4.163 4.163 0 114.163-4.164 4.161 4.161 0 01-4.163 4.164z"/><path d="M17.654.08c-2.3-.107-7.997-.102-10.3 0C5.333.175 3.549.663 2.11 2.102-.295 4.506.012 7.745.012 12.496c0 4.863-.27 8.028 2.097 10.395 2.414 2.413 5.7 2.097 10.395 2.097 4.816 0 6.479.003 8.182-.656 2.316-.899 4.064-2.969 4.235-6.687.108-2.3.102-7.996 0-10.298-.207-4.389-2.562-7.05-7.267-7.267zm3.64 21.22c-1.576 1.577-3.762 1.436-8.82 1.436-5.209 0-7.297.077-8.821-1.45-1.755-1.748-1.438-4.553-1.438-8.806 0-5.755-.59-9.9 5.186-10.196 1.327-.047 1.717-.062 5.058-.062l.047.03c5.551 0 9.906-.58 10.168 5.195.059 1.317.073 1.713.073 5.048-.002 5.148.096 7.25-1.453 8.806z"/><path d="M19.173 7.327a1.499 1.499 0 100-2.998 1.499 1.499 0 000 2.998z"/></g></symbol><symbol id="vk-icon" viewBox="0 0 25 25"><g clip-path="url(#clip0)"><path fill-rule="evenodd" clip-rule="evenodd" d="M21.516 14.422c.83.81 1.705 1.571 2.448 2.462.329.396.64.805.878 1.265.337.653.032 1.372-.554 1.411l-3.642-.001c-.94.078-1.689-.3-2.319-.943-.504-.513-.971-1.06-1.456-1.591a3.448 3.448 0 00-.655-.583c-.498-.322-.93-.224-1.213.295-.29.527-.355 1.111-.384 1.7-.039.857-.298 1.082-1.16 1.122-1.84.086-3.588-.192-5.211-1.12-1.431-.82-2.54-1.976-3.507-3.284-1.88-2.548-3.32-5.348-4.615-8.226-.291-.649-.078-.997.637-1.01a98.864 98.864 0 013.566 0c.483.006.803.283.99.74.642 1.58 1.429 3.084 2.416 4.478.263.37.531.742.913 1.003.422.29.744.193.942-.277.126-.298.182-.62.21-.94.094-1.099.107-2.196-.058-3.291-.102-.684-.487-1.127-1.17-1.256-.347-.066-.295-.195-.127-.394.293-.343.568-.556 1.117-.556h4.116c.648.128.792.419.88 1.07l.004 4.573c-.007.252.127 1.001.581 1.169.364.119.604-.173.822-.403.986-1.046 1.689-2.282 2.317-3.562.28-.563.519-1.148.751-1.732.173-.433.443-.646.93-.637l3.962.004c.118 0 .237.001.35.02.668.115.85.402.645 1.054-.325 1.022-.957 1.875-1.575 2.73-.66.915-1.367 1.798-2.022 2.717-.602.84-.555 1.263.193 1.993z"/></g></symbol></svg>