<svg width="25" height="25" viewBox="0 0 25 25" fill="none" xmlns="http://www.w3.org/2000/svg">
<g clip-path="url(#clip0)">
<path d="M12.5042 6.08142C8.95939 6.08142 6.0896 8.95434 6.0896 12.496C6.0896 16.0408 8.96252 18.9106 12.5042 18.9106C16.049 18.9106 18.9188 16.0377 18.9188 12.496C18.9188 8.95121 16.0458 6.08142 12.5042 6.08142ZM12.5042 16.6595C10.2031 16.6595 8.34064 14.796 8.34064 12.496C8.34064 10.196 10.2042 8.33246 12.5042 8.33246C14.8042 8.33246 16.6677 10.196 16.6677 12.496C16.6688 14.796 14.8052 16.6595 12.5042 16.6595Z"/>
<path d="M17.6539 0.0798706C15.3539 -0.0274211 9.65698 -0.0222128 7.3549 0.0798706C5.33198 0.174662 3.5476 0.663204 2.10906 2.10175C-0.295104 4.50591 0.0121874 7.7455 0.0121874 12.4965C0.0121874 17.359 -0.258646 20.5236 2.10906 22.8913C4.5226 25.3038 7.80906 24.9882 12.5039 24.9882C17.3205 24.9882 18.983 24.9913 20.6861 24.332C23.0018 23.433 24.7497 21.3632 24.9205 17.6455C25.0289 15.3445 25.0226 9.64862 24.9205 7.34654C24.7143 2.958 22.3591 0.296537 17.6539 0.0798706ZM21.2945 21.3007C19.7184 22.8767 17.532 22.7361 12.4736 22.7361C7.26531 22.7361 5.17677 22.8132 3.65281 21.2851C1.8976 19.5382 2.21531 16.733 2.21531 12.4799C2.21531 6.72466 1.62469 2.57987 7.40073 2.28404C8.72781 2.23716 9.11844 2.22154 12.4591 2.22154L12.5059 2.25279C18.057 2.25279 22.4122 1.67154 22.6736 7.44654C22.733 8.76425 22.7466 9.16008 22.7466 12.4955C22.7455 17.6434 22.8434 19.7445 21.2945 21.3007Z"/>
<path d="M19.1729 7.3269C20.0008 7.3269 20.6719 6.65579 20.6719 5.82794C20.6719 5.00009 20.0008 4.32898 19.1729 4.32898C18.3451 4.32898 17.674 5.00009 17.674 5.82794C17.674 6.65579 18.3451 7.3269 19.1729 7.3269Z"/>
</g>
<defs>
<clipPath id="clip0">
<rect width="25" height="25"/>
</clipPath>
</defs>
</svg>
