<svg width="25" height="25" viewBox="0 0 25 25" fill="none" xmlns="http://www.w3.org/2000/svg">
<g clip-path="url(#clip0)">
<path fill-rule="evenodd" clip-rule="evenodd" d="M21.5161 14.4217C22.3453 15.2313 23.2206 15.9931 23.9644 16.8844C24.293 17.2804 24.604 17.6892 24.842 18.1488C25.1792 18.8022 24.8738 19.5213 24.2879 19.5603L20.6458 19.5587C19.7064 19.6366 18.9571 19.2585 18.327 18.6162C17.8227 18.1026 17.3558 17.5559 16.8709 17.025C16.6721 16.808 16.4641 16.6038 16.2155 16.4424C15.7183 16.1197 15.2868 16.2185 15.0026 16.737C14.7133 17.2644 14.6476 17.8484 14.6192 18.4362C14.5802 19.2939 14.321 19.5193 13.4595 19.5586C11.6184 19.6454 9.87113 19.3669 8.24797 18.4381C6.81694 17.6194 5.70723 16.4635 4.74135 15.1549C2.86077 12.6069 1.42061 9.80698 0.126258 6.92865C-0.165091 6.28015 0.0479794 5.93205 0.763497 5.91973C1.95165 5.89665 3.13963 5.89829 4.32918 5.91808C4.81208 5.92515 5.13176 6.20212 5.31822 6.65833C5.96104 8.23894 6.74761 9.74275 7.73493 11.1367C7.99786 11.5078 8.26596 11.8789 8.64775 12.1401C9.07011 12.4293 9.39168 12.3334 9.59038 11.8629C9.71646 11.5646 9.77166 11.2433 9.80008 10.9238C9.89421 9.82448 9.90662 8.72709 9.74152 7.63168C9.64016 6.94803 9.25509 6.50546 8.57292 6.37609C8.22481 6.31014 8.27664 6.1806 8.44519 5.98191C8.73794 5.63922 9.01327 5.4259 9.56212 5.4259H13.6782C14.3262 5.55379 14.4701 5.8449 14.5588 6.49692L14.5624 11.0691C14.5553 11.3215 14.6885 12.0705 15.1431 12.2376C15.507 12.3565 15.7468 12.0654 15.9651 11.8347C16.9507 10.7887 17.654 9.5526 18.2824 8.27261C18.5613 7.70979 18.801 7.12529 19.0334 6.54128C19.2056 6.10791 19.4757 5.89467 19.9639 5.90412L23.9254 5.90765C24.0428 5.90765 24.1617 5.90938 24.2755 5.92884C24.943 6.04261 25.1259 6.32977 24.9198 6.98163C24.5949 8.00435 23.9628 8.85663 23.3448 9.71285C22.6842 10.627 21.9776 11.5098 21.3225 12.4294C20.7205 13.2691 20.7683 13.6923 21.5161 14.4217Z" />
</g>
<defs>
<clipPath id="clip0">
<rect width="25" height="25"/>
</clipPath>
</defs>
</svg>
