<svg width="33" height="33" viewBox="0 0 33 33" fill="none" xmlns="http://www.w3.org/2000/svg">
<path d="M10.6786 2.72757C10.5789 2.63556 10.4482 2.58447 10.3125 2.58447C10.1768 2.58447 10.0461 2.63556 9.94641 2.72757C9.90091 2.77772 9.86429 2.83526 9.83813 2.89772C9.81095 2.95947 9.79691 3.02619 9.79691 3.09366C9.79691 3.16112 9.81095 3.22785 9.83813 3.2896C9.86429 3.35206 9.90091 3.4096 9.94641 3.45975C10.0442 3.55561 10.1756 3.60931 10.3125 3.60931C10.4494 3.60931 10.5809 3.55561 10.6786 3.45975C10.7241 3.4096 10.7607 3.35206 10.7869 3.2896C10.8141 3.22785 10.8281 3.16112 10.8281 3.09366C10.8281 3.02619 10.8141 2.95947 10.7869 2.89772C10.7607 2.83526 10.7241 2.77772 10.6786 2.72757Z" fill="white"/>
<path d="M30.4219 12.8906H29.9062V8.76562C29.9062 8.35537 29.7433 7.96191 29.4532 7.67182C29.1631 7.38172 28.7696 7.21875 28.3594 7.21875H19.5938V2.57812C19.5938 2.16787 19.4308 1.77441 19.1407 1.48432C18.8506 1.19422 18.4571 1.03125 18.0469 1.03125H2.57812C2.16787 1.03125 1.77441 1.19422 1.48432 1.48432C1.19422 1.77441 1.03125 2.16787 1.03125 2.57812V30.4219C1.03125 30.8321 1.19422 31.2256 1.48432 31.5157C1.77441 31.8058 2.16787 31.9688 2.57812 31.9688H18.0469C18.4571 31.9688 18.8506 31.8058 19.1407 31.5157C19.4308 31.2256 19.5938 30.8321 19.5938 30.4219V25.7812H28.3594C28.7696 25.7812 29.1631 25.6183 29.4532 25.3282C29.7433 25.0381 29.9062 24.6446 29.9062 24.2344V20.1094H30.4219C30.8321 20.1094 31.2256 19.9464 31.5157 19.6563C31.8058 19.3662 31.9688 18.9728 31.9688 18.5625V14.4375C31.9688 14.0272 31.8058 13.6338 31.5157 13.3437C31.2256 13.0536 30.8321 12.8906 30.4219 12.8906ZM28.875 8.76562V9.28125H10.8281V8.25H28.3594C28.4961 8.25 28.6273 8.30432 28.724 8.40102C28.8207 8.49772 28.875 8.62887 28.875 8.76562ZM6.70312 20.625C5.76577 20.6258 4.85623 20.3065 4.125 19.7201V13.2799C4.63953 12.868 5.24529 12.5853 5.89154 12.4556C6.53778 12.3259 7.20569 12.353 7.83932 12.5346C8.47295 12.7161 9.05385 13.0469 9.53336 13.4991C10.0129 13.9513 10.377 14.5119 10.5953 15.1338C10.8136 15.7558 10.8797 16.421 10.788 17.0737C10.6964 17.7264 10.4496 18.3477 10.0685 18.8854C9.68731 19.4231 9.18284 19.8617 8.59731 20.1644C8.01178 20.4671 7.36225 20.625 6.70312 20.625ZM2.0625 2.57812C2.0625 2.44137 2.11682 2.31022 2.21352 2.21352C2.31022 2.11682 2.44137 2.0625 2.57812 2.0625H18.0469C18.1836 2.0625 18.3148 2.11682 18.4115 2.21352C18.5082 2.31022 18.5625 2.44137 18.5625 2.57812V4.125H2.0625V2.57812ZM2.0625 30.4219V28.875H9.16781C8.90916 29.1561 8.76561 29.5242 8.76561 29.9062C8.76561 30.2883 8.90916 30.6564 9.16781 30.9375H2.57812C2.44137 30.9375 2.31022 30.8832 2.21352 30.7865C2.11682 30.6898 2.0625 30.5586 2.0625 30.4219ZM10.3125 30.4219C10.2105 30.4219 10.1108 30.3916 10.026 30.335C9.94124 30.2783 9.87515 30.1978 9.83612 30.1036C9.7971 30.0094 9.78689 29.9057 9.80678 29.8057C9.82668 29.7056 9.87579 29.6138 9.9479 29.5416C10.02 29.4695 10.1119 29.4204 10.2119 29.4005C10.3119 29.3806 10.4156 29.3909 10.5098 29.4299C10.604 29.4689 10.6846 29.535 10.7412 29.6198C10.7979 29.7046 10.8281 29.8043 10.8281 29.9062C10.8281 30.043 10.7738 30.1742 10.6771 30.2709C10.5804 30.3675 10.4493 30.4219 10.3125 30.4219ZM18.5625 30.4219C18.5625 30.5586 18.5082 30.6898 18.4115 30.7865C18.3148 30.8832 18.1836 30.9375 18.0469 30.9375H11.4572C11.7158 30.6564 11.8594 30.2883 11.8594 29.9062C11.8594 29.5242 11.7158 29.1561 11.4572 28.875H18.5625V30.4219ZM18.5625 27.8438H2.0625V5.15625H18.5625V7.21875H10.8281V6.1875H9.79688V12.3848C8.99113 11.7739 8.02265 11.415 7.01337 11.3533C6.00408 11.2917 4.99912 11.53 4.125 12.0383V10.3125H3.09375V22.6875H4.125V20.9617C4.99912 21.47 6.00408 21.7083 7.01337 21.6467C8.02265 21.585 8.99113 21.2261 9.79688 20.6152V26.8125H10.8281V25.7812H18.5625V27.8438ZM28.875 24.2344C28.875 24.3711 28.8207 24.5023 28.724 24.599C28.6273 24.6957 28.4961 24.75 28.3594 24.75H10.8281V23.7188H28.875V24.2344ZM28.875 22.6875H10.8281V19.5809C11.4974 18.6932 11.8594 17.6117 11.8594 16.5C11.8594 15.3883 11.4974 14.3068 10.8281 13.4191V10.3125H28.875V12.8906H24.2344C23.2771 12.8906 22.359 13.2709 21.6822 13.9478C21.0053 14.6247 20.625 15.5427 20.625 16.5C20.625 17.4573 21.0053 18.3753 21.6822 19.0522C22.359 19.7291 23.2771 20.1094 24.2344 20.1094H28.875V22.6875ZM30.9375 18.5625C30.9375 18.6993 30.8832 18.8304 30.7865 18.9271C30.6898 19.0238 30.5586 19.0781 30.4219 19.0781H24.2344C23.5506 19.0781 22.8949 18.8065 22.4114 18.323C21.9279 17.8395 21.6562 17.1838 21.6562 16.5C21.6562 15.8162 21.9279 15.1605 22.4114 14.677C22.8949 14.1935 23.5506 13.9219 24.2344 13.9219H30.4219C30.5586 13.9219 30.6898 13.9762 30.7865 14.0729C30.8832 14.1696 30.9375 14.3007 30.9375 14.4375V18.5625Z" fill="white"/>
<path d="M24.2344 14.9531C23.9284 14.9531 23.6294 15.0438 23.375 15.2138C23.1206 15.3838 22.9223 15.6254 22.8053 15.908C22.6882 16.1907 22.6575 16.5017 22.7172 16.8018C22.7769 17.1018 22.9242 17.3775 23.1406 17.5938C23.3569 17.8101 23.6325 17.9575 23.9326 18.0172C24.2327 18.0768 24.5437 18.0462 24.8263 17.9291C25.109 17.8121 25.3506 17.6138 25.5206 17.3594C25.6905 17.105 25.7813 16.8059 25.7813 16.5C25.7813 16.0897 25.6183 15.6963 25.3282 15.4062C25.0381 15.1161 24.6446 14.9531 24.2344 14.9531ZM24.2344 17.0156C24.1324 17.0156 24.0327 16.9854 23.9479 16.9287C23.8631 16.8721 23.797 16.7915 23.758 16.6973C23.719 16.6031 23.7088 16.4994 23.7287 16.3994C23.7486 16.2994 23.7977 16.2075 23.8698 16.1354C23.9419 16.0633 24.0338 16.0142 24.1338 15.9943C24.2338 15.9744 24.3375 15.9846 24.4317 16.0236C24.5259 16.0627 24.6064 16.1287 24.6631 16.2135C24.7198 16.2983 24.75 16.398 24.75 16.5C24.75 16.6368 24.6957 16.7679 24.599 16.8646C24.5023 16.9613 24.3711 17.0156 24.2344 17.0156Z" fill="white"/>
<path d="M6.70312 14.9531C6.83988 14.9531 6.97103 15.0074 7.06773 15.1041C7.16443 15.2008 7.21875 15.332 7.21875 15.4688H8.25C8.24868 15.15 8.14889 14.8394 7.9643 14.5795C7.7797 14.3195 7.51931 14.123 7.21875 14.0167V13.4062H6.1875V14.0167C5.84374 14.1378 5.55393 14.3767 5.36939 14.6909C5.18485 15.0052 5.1175 15.3747 5.17925 15.7339C5.24101 16.0931 5.4279 16.4188 5.70681 16.6534C5.98573 16.888 6.33867 17.0163 6.70312 17.0156C6.80511 17.0156 6.9048 17.0459 6.98959 17.1025C7.07439 17.1592 7.14047 17.2397 7.1795 17.3339C7.21853 17.4281 7.22874 17.5318 7.20884 17.6318C7.18895 17.7319 7.13984 17.8237 7.06773 17.8959C6.99562 17.968 6.90374 18.0171 6.80372 18.037C6.7037 18.0569 6.60002 18.0467 6.5058 18.0076C6.41159 17.9686 6.33106 17.9025 6.2744 17.8177C6.21774 17.7329 6.1875 17.6332 6.1875 17.5312H5.15625C5.15757 17.85 5.25736 18.1606 5.44195 18.4205C5.62655 18.6805 5.88694 18.877 6.1875 18.9833V19.5938H7.21875V18.9833C7.56251 18.8622 7.85232 18.6233 8.03686 18.3091C8.2214 17.9948 8.28875 17.6253 8.227 17.2661C8.16524 16.9069 7.97835 16.5812 7.69944 16.3466C7.42052 16.112 7.06758 15.9837 6.70312 15.9844C6.56637 15.9844 6.43522 15.9301 6.33852 15.8334C6.24182 15.7367 6.1875 15.6055 6.1875 15.4688C6.1875 15.332 6.24182 15.2008 6.33852 15.1041C6.43522 15.0074 6.56637 14.9531 6.70312 14.9531Z" fill="white"/>
</svg>
