<svg width="34" height="34" viewBox="0 0 34 34" fill="none" xmlns="http://www.w3.org/2000/svg">
<path d="M19.6562 18.9922C20.0228 18.9922 20.3203 18.6947 20.3203 18.3281C20.3203 17.9616 20.0228 17.6641 19.6562 17.6641C19.2897 17.6641 18.9922 17.9616 18.9922 18.3281C18.9922 18.6947 19.2897 18.9922 19.6562 18.9922Z" fill="white"/>
<path d="M5.04688 18.9922C5.41341 18.9922 5.71094 18.6947 5.71094 18.3281C5.71094 17.9616 5.41341 17.6641 5.04688 17.6641C4.68034 17.6641 4.38281 17.9616 4.38281 18.3281C4.38281 18.6947 4.68034 18.9922 5.04688 18.9922Z" fill="white"/>
<path d="M0.664062 8.36719C1.03085 8.36719 1.32812 8.06992 1.32812 7.70312V1.32812H7.70312C8.06992 1.32812 8.36719 1.03085 8.36719 0.664062C8.36719 0.297272 8.06992 0 7.70312 0H0.664062C0.297272 0 0 0.297272 0 0.664062V7.70312C0 8.06992 0.297272 8.36719 0.664062 8.36719Z" fill="white"/>
<path d="M8.36719 33.3359C8.36719 32.9691 8.06992 32.6719 7.70312 32.6719H1.32812V26.2969C1.32812 25.9301 1.03085 25.6328 0.664062 25.6328C0.297272 25.6328 0 25.9301 0 26.2969V33.3359C0 33.7027 0.297272 34 0.664062 34H7.70312C8.06992 34 8.36719 33.7027 8.36719 33.3359Z" fill="white"/>
<path d="M33.3359 25.6328C32.9691 25.6328 32.6719 25.9301 32.6719 26.2969V32.6719H26.2969C25.9301 32.6719 25.6328 32.9691 25.6328 33.3359C25.6328 33.7027 25.9301 34 26.2969 34H33.3359C33.7027 34 34 33.7027 34 33.3359V26.2969C34 25.9301 33.7027 25.6328 33.3359 25.6328Z" fill="white"/>
<path d="M33.3359 0H26.2969C25.9301 0 25.6328 0.297272 25.6328 0.664062C25.6328 1.03085 25.9301 1.32812 26.2969 1.32812H32.6719V7.70312C32.6719 8.06992 32.9691 8.36719 33.3359 8.36719C33.7027 8.36719 34 8.06992 34 7.70312V0.664062C34 0.297272 33.7027 0 33.3359 0Z" fill="white"/>
<path d="M4.38281 28.9531C4.38281 29.3199 4.68008 29.6172 5.04688 29.6172H11.6875C12.0543 29.6172 12.3516 29.3199 12.3516 28.9531V22.3125C12.3516 21.9457 12.0543 21.6484 11.6875 21.6484H5.04688C4.68008 21.6484 4.38281 21.9457 4.38281 22.3125V28.9531ZM5.71094 22.9766H11.0234V28.2891H5.71094V22.9766Z" fill="white"/>
<path d="M11.6875 4.38281H5.04688C4.68008 4.38281 4.38281 4.68008 4.38281 5.04688V11.6875C4.38281 12.0543 4.68008 12.3516 5.04688 12.3516H11.6875C12.0543 12.3516 12.3516 12.0543 12.3516 11.6875V5.04688C12.3516 4.68008 12.0543 4.38281 11.6875 4.38281ZM11.0234 11.0234H5.71094V5.71094H11.0234V11.0234Z" fill="white"/>
<path d="M29.6172 5.04688C29.6172 4.68008 29.3199 4.38281 28.9531 4.38281H22.3125C21.9457 4.38281 21.6484 4.68008 21.6484 5.04688V11.6875C21.6484 12.0543 21.9457 12.3516 22.3125 12.3516H28.9531C29.3199 12.3516 29.6172 12.0543 29.6172 11.6875V5.04688ZM28.2891 11.0234H22.9766V5.71094H28.2891V11.0234Z" fill="white"/>
<path d="M29.6172 28.9531V22.3125C29.6172 21.9457 29.3199 21.6484 28.9531 21.6484H22.3125C21.9457 21.6484 21.6484 21.9457 21.6484 22.3125V28.9531C21.6484 29.3199 21.9457 29.6172 22.3125 29.6172H28.9531C29.3199 29.6172 29.6172 29.3199 29.6172 28.9531ZM28.2891 28.2891H22.9766V22.9766H28.2891V28.2891Z" fill="white"/>
<path d="M9.03125 24.3047H7.70312C7.33633 24.3047 7.03906 24.602 7.03906 24.9688V26.2969C7.03906 26.6637 7.33633 26.9609 7.70312 26.9609H9.03125C9.39804 26.9609 9.69531 26.6637 9.69531 26.2969V24.9688C9.69531 24.602 9.39804 24.3047 9.03125 24.3047Z" fill="white"/>
<path d="M7.70312 9.69531H9.03125C9.39804 9.69531 9.69531 9.39804 9.69531 9.03125V7.70312C9.69531 7.33633 9.39804 7.03906 9.03125 7.03906H7.70312C7.33633 7.03906 7.03906 7.33633 7.03906 7.70312V9.03125C7.03906 9.39804 7.33633 9.69531 7.70312 9.69531Z" fill="white"/>
<path d="M24.9688 9.69531H26.2969C26.6637 9.69531 26.9609 9.39804 26.9609 9.03125V7.70312C26.9609 7.33633 26.6637 7.03906 26.2969 7.03906H24.9688C24.602 7.03906 24.3047 7.33633 24.3047 7.70312V9.03125C24.3047 9.39804 24.602 9.69531 24.9688 9.69531Z" fill="white"/>
<path d="M24.9688 26.9609H26.2969C26.6637 26.9609 26.9609 26.6637 26.9609 26.2969V24.9688C26.9609 24.602 26.6637 24.3047 26.2969 24.3047H24.9688C24.602 24.3047 24.3047 24.602 24.3047 24.9688V26.2969C24.3047 26.6637 24.602 26.9609 24.9688 26.9609Z" fill="white"/>
<path d="M7.03906 18.3281C7.03906 18.6949 7.33633 18.9922 7.70312 18.9922H16.3359V22.3125C16.3359 22.6793 16.6332 22.9766 17 22.9766C17.3668 22.9766 17.6641 22.6793 17.6641 22.3125V18.3281C17.6641 17.9613 17.3668 17.6641 17 17.6641H7.70312C7.33633 17.6641 7.03906 17.9613 7.03906 18.3281Z" fill="white"/>
<path d="M11.6875 16.3359C12.0543 16.3359 12.3516 16.0387 12.3516 15.6719C12.3516 15.3051 12.0543 15.0078 11.6875 15.0078H5.04688C4.68008 15.0078 4.38281 15.3051 4.38281 15.6719C4.38281 16.0387 4.68008 16.3359 5.04688 16.3359H11.6875Z" fill="white"/>
<path d="M14.3438 16.3359H17C17.3668 16.3359 17.6641 16.0387 17.6641 15.6719C17.6641 15.3051 17.3668 15.0078 17 15.0078H14.3438C13.977 15.0078 13.6797 15.3051 13.6797 15.6719C13.6797 16.0387 13.977 16.3359 14.3438 16.3359Z" fill="white"/>
<path d="M14.3438 4.38281C13.977 4.38281 13.6797 4.68008 13.6797 5.04688V11.6875C13.6797 12.0543 13.977 12.3516 14.3438 12.3516H18.9922V15.6719C18.9922 16.0387 19.2895 16.3359 19.6562 16.3359H22.3125C22.6793 16.3359 22.9766 16.0387 22.9766 15.6719C22.9766 15.3051 22.6793 15.0078 22.3125 15.0078H20.3203V11.6875C20.3203 11.3207 20.023 11.0234 19.6562 11.0234H15.0078V5.04688C15.0078 4.68008 14.7105 4.38281 14.3438 4.38281Z" fill="white"/>
<path d="M28.9531 15.0078H24.9688C24.602 15.0078 24.3047 15.3051 24.3047 15.6719C24.3047 16.0387 24.602 16.3359 24.9688 16.3359H28.9531C29.3199 16.3359 29.6172 16.0387 29.6172 15.6719C29.6172 15.3051 29.3199 15.0078 28.9531 15.0078Z" fill="white"/>
<path d="M28.9531 17.6641H22.3125C21.9457 17.6641 21.6484 17.9613 21.6484 18.3281C21.6484 18.6949 21.9457 18.9922 22.3125 18.9922H28.9531C29.3199 18.9922 29.6172 18.6949 29.6172 18.3281C29.6172 17.9613 29.3199 17.6641 28.9531 17.6641Z" fill="white"/>
<path d="M17 24.3047H14.3438C13.977 24.3047 13.6797 24.602 13.6797 24.9688V28.9531C13.6797 29.3199 13.977 29.6172 14.3438 29.6172C14.7105 29.6172 15.0078 29.3199 15.0078 28.9531V25.6328H17C17.3668 25.6328 17.6641 25.3355 17.6641 24.9688C17.6641 24.602 17.3668 24.3047 17 24.3047Z" fill="white"/>
<path d="M18.9922 28.2891H17C16.6332 28.2891 16.3359 28.5863 16.3359 28.9531C16.3359 29.3199 16.6332 29.6172 17 29.6172H19.6562C20.023 29.6172 20.3203 29.3199 20.3203 28.9531V20.9844C20.3203 20.6176 20.023 20.3203 19.6562 20.3203C19.2895 20.3203 18.9922 20.6176 18.9922 20.9844V28.2891Z" fill="white"/>
<path d="M19.6562 9.69531C20.023 9.69531 20.3203 9.39804 20.3203 9.03125V5.04688C20.3203 4.68008 20.023 4.38281 19.6562 4.38281C19.2895 4.38281 18.9922 4.68008 18.9922 5.04688V8.36719H17C16.6332 8.36719 16.3359 8.66446 16.3359 9.03125C16.3359 9.39804 16.6332 9.69531 17 9.69531H19.6562Z" fill="white"/>
</svg>
