<svg width="34" height="34" viewBox="0 0 34 34" fill="none" xmlns="http://www.w3.org/2000/svg">
<g clip-path="url(#clip0)">
<path d="M17.4439 18.5561C17.381 18.5424 17.3165 18.54 17.2527 18.5495C16.6142 18.4752 16.1324 17.9349 16.1314 17.2923C16.1314 16.9843 15.8816 16.7346 15.5737 16.7346C15.2657 16.7346 15.016 16.9843 15.016 17.2923C15.0176 18.3654 15.7354 19.3055 16.7702 19.5895V20.1472C16.7702 20.4552 17.0199 20.7049 17.3279 20.7049C17.6359 20.7049 17.8856 20.4552 17.8856 20.1472V19.6233C19.08 19.3733 19.8917 18.2609 19.7662 17.0472C19.6404 15.8335 18.6178 14.9111 17.3976 14.9109C16.6983 14.9109 16.1314 14.3439 16.1314 13.6446C16.1314 12.9453 16.6983 12.3784 17.3976 12.3784C18.0969 12.3784 18.6639 12.9453 18.6639 13.6446C18.6639 13.9526 18.9136 14.2023 19.2216 14.2023C19.5296 14.2023 19.7793 13.9526 19.7793 13.6446C19.7776 12.5178 18.9882 11.5459 17.8856 11.3133V10.8057C17.8856 10.4978 17.6359 10.248 17.3279 10.248C17.0199 10.248 16.7702 10.4978 16.7702 10.8057V11.3474C15.6194 11.6616 14.8787 12.7789 15.0372 13.9613C15.1957 15.1437 16.2046 16.0263 17.3976 16.026C18.0877 16.026 18.6505 16.5785 18.6631 17.2683C18.6759 17.9581 18.1334 18.531 17.4439 18.5561Z" fill="white"/>
<path d="M9.31041 15.511C9.31041 19.9775 12.9311 23.5982 17.3976 23.5982C21.8641 23.5982 25.4847 19.9775 25.4847 15.511C25.4847 11.0445 21.8641 7.42383 17.3976 7.42383C12.9333 7.42873 9.31558 11.0467 9.31041 15.511ZM17.3976 8.53922C21.2481 8.53922 24.3693 11.6605 24.3693 15.511C24.3693 19.3615 21.2481 22.4828 17.3976 22.4828C13.5471 22.4828 10.4258 19.3615 10.4258 15.511C10.4302 11.6624 13.549 8.54358 17.3976 8.53922Z" fill="white"/>
<path d="M28.234 24.973L23.8653 27.0371C23.2621 25.9152 22.1051 25.2012 20.8317 25.1653L16.7988 25.0544C16.1602 25.0362 15.5336 24.8744 14.9658 24.5811L14.5554 24.3685C12.4543 23.2732 9.94979 23.2759 7.8508 24.3755L7.8764 23.4459C7.88484 23.1379 7.64221 22.8814 7.33422 22.8729L2.91185 22.7512C2.60387 22.7427 2.34762 22.9854 2.33918 23.2934L2.07204 32.9981C2.0636 33.3061 2.30623 33.5626 2.61421 33.571L7.03658 33.6928H7.05183C7.3541 33.6928 7.60136 33.4523 7.60953 33.1503L7.62233 32.686L8.77122 32.0709C9.22217 31.8282 9.74937 31.7705 10.242 31.9099L17.1027 33.8354C17.1146 33.839 17.1266 33.8417 17.1389 33.8444C17.6348 33.9482 18.1402 34.0002 18.6467 33.9999C19.7196 34.0005 20.78 33.7693 21.7551 33.3216C21.7791 33.3107 21.8022 33.2979 21.8243 33.2835L31.7716 26.8492C32.0194 26.6888 32.0995 26.3634 31.9544 26.1064C31.2158 24.796 29.5779 24.2968 28.234 24.973ZM3.20241 32.4714L3.43878 23.8816L6.74603 23.9725L6.50966 32.5627L3.20241 32.4714ZM21.2527 32.3255C20.0412 32.8723 18.6881 33.0231 17.3859 32.7571L10.5437 30.8365C9.77361 30.6189 8.94931 30.709 8.24484 31.0878L7.65773 31.4023L7.81486 25.6911C9.6753 24.4537 12.0613 24.3265 14.0427 25.3589L14.453 25.5715C15.1703 25.9419 15.9614 26.1461 16.7683 26.1695L20.8015 26.2804C21.9343 26.3131 22.8964 27.1196 23.1262 28.2296L17.1187 28.0638C16.8107 28.0553 16.5545 28.2982 16.5458 28.6059C16.5373 28.9139 16.7802 29.1704 17.0879 29.1789L23.7177 29.3613H23.7332C24.0352 29.3611 24.2822 29.1206 24.2904 28.8189C24.2972 28.5765 24.2792 28.3339 24.2365 28.0953L28.7174 25.9781C28.7217 25.9762 28.7261 25.974 28.7304 25.9718C29.366 25.6502 30.1345 25.7578 30.6573 26.2417L21.2527 32.3255Z" fill="white"/>
<path d="M17.9553 5.85583V0.557698C17.9553 0.249711 17.7055 0 17.3976 0C17.0896 0 16.8399 0.249711 16.8399 0.557698V5.85583C16.8399 6.16382 17.0896 6.41353 17.3976 6.41353C17.7055 6.41353 17.9553 6.16382 17.9553 5.85583Z" fill="white"/>
<path d="M22.1381 5.85591V3.34627C22.1381 3.03829 21.8883 2.78857 21.5804 2.78857C21.2724 2.78857 21.0227 3.03829 21.0227 3.34627V5.85591C21.0227 6.1639 21.2724 6.41361 21.5804 6.41361C21.8883 6.41361 22.1381 6.1639 22.1381 5.85591Z" fill="white"/>
<path d="M13.7725 5.85591V3.34627C13.7725 3.03829 13.5228 2.78857 13.2148 2.78857C12.9068 2.78857 12.6571 3.03829 12.6571 3.34627V5.85591C12.6571 6.1639 12.9068 6.41361 13.2148 6.41361C13.5228 6.41361 13.7725 6.1639 13.7725 5.85591Z" fill="white"/>
</g>
<defs>
<clipPath id="clip0">
<rect width="34" height="34" fill="white"/>
</clipPath>
</defs>
</svg>
