<svg width="34" height="34" viewBox="0 0 34 34" fill="none" xmlns="http://www.w3.org/2000/svg">
<path d="M12.2188 2.65625H7.96875V3.71875H12.2188V2.65625Z" fill="white"/>
<path d="M14.3438 2.65625H13.2812V3.71875H14.3438V2.65625Z" fill="white"/>
<path d="M6.90625 2.65625H5.84375V3.71875H6.90625V2.65625Z" fill="white"/>
<path d="M11.6875 30.2812H8.5V31.3438H11.6875V30.2812Z" fill="white"/>
<path d="M31.875 10.0938H19.6562V3.1875C19.6562 1.72284 18.4647 0.53125 17 0.53125H3.1875C1.72284 0.53125 0.53125 1.72284 0.53125 3.1875V30.8125C0.53125 32.2772 1.72284 33.4688 3.1875 33.4688H17C18.4647 33.4688 19.6562 32.2772 19.6562 30.8125V24.9688H31.875C32.7537 24.9688 33.4688 24.2537 33.4688 23.375V11.6875C33.4688 10.8088 32.7537 10.0938 31.875 10.0938ZM32.4062 11.6875V13.2812H14.3438V11.6875C14.3438 11.3942 14.5823 11.1562 14.875 11.1562H31.875C32.1677 11.1562 32.4062 11.3942 32.4062 11.6875ZM13.2812 20.9716C12.4945 21.5002 11.5823 21.7812 10.625 21.7812C7.98894 21.7812 5.84375 19.6366 5.84375 17C5.84375 14.3634 7.98894 12.2188 10.625 12.2188C11.5823 12.2188 12.4945 12.4998 13.2812 13.0278V20.9716ZM14.3438 14.3438H32.4062V16.4688H14.3438V14.3438ZM3.1875 1.59375H17C17.8787 1.59375 18.5938 2.30881 18.5938 3.1875V4.78125H1.59375V3.1875C1.59375 2.30881 2.30881 1.59375 3.1875 1.59375ZM17 32.4062H3.1875C2.30881 32.4062 1.59375 31.6912 1.59375 30.8125V29.2188H18.5938V30.8125C18.5938 31.6912 17.8787 32.4062 17 32.4062ZM18.5938 28.1562H1.59375V5.84375H18.5938V10.0938H17.5312V6.90625H2.65625V27.0938H17.5312V24.9688H18.5938V28.1562ZM31.875 23.9062H17L16.4688 23.9551V26.0312H3.71875V7.96875H16.4688V10.0938H14.875C13.9963 10.0938 13.2812 10.8088 13.2812 11.6875V11.7948C12.4647 11.3762 11.5621 11.1562 10.625 11.1562C7.40297 11.1562 4.78125 13.778 4.78125 17C4.78125 20.222 7.40297 22.8438 10.625 22.8438C11.5621 22.8438 12.4642 22.6238 13.2812 22.2052V23.375C13.2812 24.2537 13.9963 24.9688 14.875 24.9688H15.4062V23.9062H14.875C14.5823 23.9062 14.3438 23.6682 14.3438 23.375V17.5312H32.4062V23.375C32.4062 23.6682 32.1677 23.9062 31.875 23.9062Z" fill="white"/>
<path d="M29.2188 18.5938C28.8304 18.5938 28.4713 18.7058 28.1578 18.8886C27.8343 18.6984 27.4693 18.5938 27.0938 18.5938C25.9218 18.5938 24.9688 19.5468 24.9688 20.7188C24.9688 21.8907 25.9218 22.8438 27.0938 22.8438C27.4693 22.8438 27.8343 22.7391 28.1578 22.5489C28.4713 22.7317 28.8304 22.8438 29.2188 22.8438C30.3907 22.8438 31.3438 21.8907 31.3438 20.7188C31.3438 19.5468 30.3907 18.5938 29.2188 18.5938ZM26.0312 20.7188C26.0312 20.1328 26.5078 19.6562 27.0938 19.6562C27.1947 19.6562 27.2839 19.6733 27.3673 19.6966C27.1984 20.001 27.0938 20.3463 27.0938 20.7188C27.0938 21.0912 27.1984 21.4365 27.3673 21.7409C27.2839 21.7642 27.1947 21.7812 27.0938 21.7812C26.5078 21.7812 26.0312 21.3047 26.0312 20.7188ZM29.2188 21.7812C28.6328 21.7812 28.1562 21.3047 28.1562 20.7188C28.1562 20.1328 28.6328 19.6562 29.2188 19.6562C29.8047 19.6562 30.2812 20.1328 30.2812 20.7188C30.2812 21.3047 29.8047 21.7812 29.2188 21.7812Z" fill="white"/>
<path d="M16.4688 21.7812H15.4062V22.8438H16.4688V21.7812Z" fill="white"/>
<path d="M18.5938 21.7812H17.5312V22.8438H18.5938V21.7812Z" fill="white"/>
<path d="M20.7188 21.7812H19.6562V22.8438H20.7188V21.7812Z" fill="white"/>
<path d="M22.8438 21.7812H21.7812V22.8438H22.8438V21.7812Z" fill="white"/>
<path d="M22.8438 19.6562H15.4062V20.7188H22.8438V19.6562Z" fill="white"/>
<path d="M10.0938 13.2812V14.4415C9.47697 14.6614 9.03125 15.2458 9.03125 15.9375C9.03125 16.8162 9.74631 17.5312 10.625 17.5312C10.9177 17.5312 11.1562 17.7692 11.1562 18.0625C11.1562 18.3558 10.9177 18.5938 10.625 18.5938C10.3323 18.5938 10.0938 18.3558 10.0938 18.0625H9.03125C9.03125 18.7542 9.47697 19.3386 10.0938 19.5585V20.7188H11.1562V19.5585C11.773 19.3386 12.2188 18.7542 12.2188 18.0625C12.2188 17.1838 11.5037 16.4688 10.625 16.4688C10.3323 16.4688 10.0938 16.2308 10.0938 15.9375C10.0938 15.6442 10.3323 15.4062 10.625 15.4062C10.9177 15.4062 11.1562 15.6442 11.1562 15.9375H12.2188C12.2188 15.2458 11.773 14.6614 11.1562 14.4415V13.2812H10.0938Z" fill="white"/>
</svg>
