<svg width="34" height="34" viewBox="0 0 34 34" fill="none" xmlns="http://www.w3.org/2000/svg">
<path d="M26.6289 0H7.37109C6.36411 0 5.54492 0.819188 5.54492 1.82617V17.1238C5.54492 17.3989 5.76791 17.6219 6.04297 17.6219C6.31802 17.6219 6.54102 17.3989 6.54102 17.1238V5.04688H27.459V28.9531H6.54102V19.4481C6.54102 19.173 6.31802 18.95 6.04297 18.95C5.76791 18.95 5.54492 19.173 5.54492 19.4481V32.1738C5.54492 33.1808 6.36411 34 7.37109 34H22.1424C22.4174 34 22.6404 33.777 22.6404 33.502C22.6404 33.2269 22.4174 33.0039 22.1424 33.0039H7.37109C6.91336 33.0039 6.54102 32.6316 6.54102 32.1738V29.9492H27.459V32.1738C27.459 32.6316 27.0866 33.0039 26.6289 33.0039H24.4666C24.1915 33.0039 23.9685 33.2269 23.9685 33.502C23.9685 33.777 24.1915 34 24.4666 34H26.6289C27.6359 34 28.4551 33.1808 28.4551 32.1738V1.82617C28.4551 0.819188 27.6359 0 26.6289 0ZM6.54102 4.05078V1.82617C6.54102 1.36843 6.91336 0.996094 7.37109 0.996094H26.6289C27.0866 0.996094 27.459 1.36843 27.459 1.82617V4.05078H6.54102Z" fill="white"/>
<path d="M13.5267 13.2615C13.0382 13.0813 12.5832 12.8851 12.4435 12.8238C12.3356 12.737 12.3392 12.6161 12.3465 12.5656C12.3565 12.4955 12.4075 12.3241 12.6625 12.2473C13.2228 12.0787 13.7418 12.4883 13.7568 12.5004C13.9673 12.675 14.2797 12.6471 14.456 12.4375C14.633 12.2269 14.6058 11.9128 14.3953 11.7358C14.3707 11.7152 13.9816 11.3943 13.4124 11.2642V10.9834C13.4124 10.7083 13.1894 10.4854 12.9143 10.4854C12.6393 10.4854 12.4163 10.7083 12.4163 10.9834V11.2824C12.4025 11.2862 12.3889 11.2895 12.3752 11.2936C11.8257 11.4592 11.4369 11.8924 11.3605 12.4241C11.2889 12.9231 11.5051 13.403 11.925 13.6767C12.0606 13.765 12.9998 14.1289 13.1822 14.1961C13.3565 14.2604 13.7562 14.4418 13.7034 14.7371C13.6638 14.9592 13.3932 15.1889 13.009 15.1889C12.6137 15.1889 12.2333 15.0296 11.9915 14.7627C11.8068 14.5589 11.4918 14.5434 11.288 14.7281C11.0842 14.9129 11.0686 15.2278 11.2534 15.4316C11.5531 15.7623 11.9653 15.9991 12.4164 16.1114V16.4116C12.4164 16.6867 12.6394 16.9097 12.9144 16.9097C13.1895 16.9097 13.4125 16.6867 13.4125 16.4116V16.1412C14.0651 16.0008 14.5742 15.5275 14.684 14.9122C14.783 14.3571 14.5311 13.632 13.5267 13.2615Z" fill="white"/>
<path d="M18.6206 15.187H16.0703C15.7953 15.187 15.5723 15.41 15.5723 15.6851C15.5723 15.9601 15.7953 16.1831 16.0703 16.1831H18.6206C18.8957 16.1831 19.1187 15.9601 19.1187 15.6851C19.1187 15.41 18.8957 15.187 18.6206 15.187Z" fill="white"/>
<path d="M22.0848 15.187H20.8626C20.5875 15.187 20.3645 15.41 20.3645 15.6851C20.3645 15.9601 20.5875 16.1831 20.8626 16.1831H22.0848C22.3598 16.1831 22.5828 15.9601 22.5828 15.6851C22.5828 15.41 22.3598 15.187 22.0848 15.187Z" fill="white"/>
<path d="M25.7988 17.4681V7.97668C25.7988 7.251 25.2085 6.66064 24.4828 6.66064H9.51721C8.79152 6.66064 8.20117 7.251 8.20117 7.97668V17.4681C8.20117 18.1937 8.79152 18.7841 9.51721 18.7841H24.4828C25.2085 18.7841 25.7988 18.1937 25.7988 17.4681ZM9.19727 17.4681V7.97668C9.19727 7.80024 9.34077 7.65674 9.51721 7.65674H24.4828C24.6592 7.65674 24.8027 7.80024 24.8027 7.97668V17.4681C24.8027 17.6445 24.6592 17.788 24.4828 17.788H9.51721C9.34077 17.788 9.19727 17.6445 9.19727 17.4681Z" fill="white"/>
<path d="M14.7303 22.1255C13.3843 22.1255 12.2892 23.2205 12.2892 24.5665C12.2892 25.9126 13.3843 27.0076 14.7303 27.0076H19.2696C20.6156 27.0076 21.7106 25.9126 21.7106 24.5666C21.7106 23.2205 20.6156 22.1255 19.2696 22.1255H14.7303ZM20.7146 24.5666C20.7146 25.3633 20.0664 26.0115 19.2697 26.0115H14.7303C13.9336 26.0115 13.2854 25.3633 13.2854 24.5665C13.2854 23.7698 13.9336 23.1216 14.7303 23.1216H19.2697C20.0664 23.1216 20.7146 23.7698 20.7146 24.5666Z" fill="white"/>
<path d="M15.1498 30.9785C14.8748 30.9785 14.6518 31.2015 14.6518 31.4766C14.6518 31.7516 14.8748 31.9746 15.1498 31.9746H18.8503C19.1254 31.9746 19.3484 31.7516 19.3484 31.4766C19.3484 31.2015 19.1254 30.9785 18.8503 30.9785H15.1498Z" fill="white"/>
<path d="M17.3455 2.02539H16.6545C16.3794 2.02539 16.1564 2.24838 16.1564 2.52344C16.1564 2.79849 16.3794 3.02148 16.6545 3.02148H17.3455C17.6205 3.02148 17.8435 2.79849 17.8435 2.52344C17.8435 2.24838 17.6205 2.02539 17.3455 2.02539Z" fill="white"/>
<path d="M21.8739 12.2736C21.6167 12.2736 21.3749 12.1735 21.193 11.9916L20.2017 11.0003C20.0198 10.8184 19.9197 10.5766 19.9197 10.3194C19.9197 10.0622 20.0198 9.82039 20.2018 9.63857L21.193 8.64726C21.3749 8.46538 21.6167 8.36523 21.8739 8.36523C22.1312 8.36523 22.373 8.46537 22.5548 8.64733L23.5461 9.63864C23.728 9.82046 23.8281 10.0622 23.8281 10.3195C23.8281 10.5767 23.728 10.8185 23.5461 11.0004L22.5548 11.9917C22.3729 12.1735 22.1311 12.2736 21.8739 12.2736ZM21.8974 11.2873H21.898H21.8974ZM20.9295 10.3194L21.8739 11.2638L22.8183 10.3194L21.8739 9.37507L20.9295 10.3194Z" fill="white"/>
</svg>
