<svg width="35" height="35" viewBox="0 0 35 35" fill="none" xmlns="http://www.w3.org/2000/svg">
<path d="M11.3427 13.9455C12.0457 15.1633 13.094 16.1452 14.3551 16.7672C15.6162 17.3891 17.0333 17.6232 18.4274 17.4397C19.8215 17.2562 21.1299 16.6635 22.1871 15.7364C23.2443 14.8094 24.0029 13.5896 24.3668 12.2314C24.7308 10.8733 24.6839 9.43764 24.2319 8.10614C23.78 6.77464 22.9434 5.60705 21.8279 4.75103C20.7124 3.895 19.3681 3.38899 17.965 3.29698C16.5619 3.20497 15.163 3.53109 13.9453 4.2341C12.3132 5.17763 11.1225 6.73038 10.6345 8.55127C10.1465 10.3722 10.4012 12.3123 11.3427 13.9455ZM14.4922 5.18129C15.5225 4.58636 16.7062 4.31033 17.8934 4.38811C19.0807 4.4659 20.2182 4.89399 21.1621 5.61827C22.1061 6.34254 22.814 7.33047 23.1965 8.45711C23.579 9.58375 23.6187 10.7985 23.3108 11.9478C23.0029 13.097 22.3611 14.1291 21.4666 14.9136C20.572 15.6981 19.465 16.1997 18.2854 16.355C17.1058 16.5103 15.9066 16.3123 14.8395 15.7861C13.7724 15.2599 12.8853 14.429 12.2904 13.3986C11.8904 12.7158 11.6298 11.9603 11.524 11.1761C11.4182 10.3918 11.4692 9.59427 11.674 8.82984C11.8788 8.0654 12.2334 7.34925 12.7172 6.72294C13.2009 6.09662 13.8043 5.5726 14.4922 5.18129Z" fill="white"/>
<path d="M33.3594 28.4376H32.2514C32.6133 27.9671 32.8105 27.3906 32.8125 26.797V10.3907C32.8116 9.66582 32.5233 8.97082 32.0107 8.45821C31.4981 7.94561 30.8031 7.65724 30.0781 7.65637H26.3785C25.7978 5.75553 24.622 4.09139 23.0244 2.90898C21.4268 1.72657 19.4917 1.08838 17.5041 1.08838C15.5165 1.08838 13.5814 1.72657 11.9838 2.90898C10.3862 4.09139 9.21045 5.75553 8.62969 7.65637H4.92188C4.19694 7.65724 3.50195 7.94561 2.98934 8.45821C2.47673 8.97082 2.18837 9.66582 2.1875 10.3907V26.797C2.18951 27.3906 2.38667 27.9671 2.74859 28.4376H1.64062C1.49558 28.4376 1.35648 28.4952 1.25393 28.5978C1.15137 28.7004 1.09375 28.8395 1.09375 28.9845V31.172C1.09462 31.8969 1.38298 32.5919 1.89559 33.1045C2.4082 33.6171 3.10319 33.9055 3.82812 33.9064H31.1719C31.8968 33.9055 32.5918 33.6171 33.1044 33.1045C33.617 32.5919 33.9054 31.8969 33.9062 31.172V28.9845C33.9062 28.8395 33.8486 28.7004 33.7461 28.5978C33.6435 28.4952 33.5044 28.4376 33.3594 28.4376ZM30.0781 8.75012C30.5132 8.75012 30.9305 8.92298 31.2382 9.23065C31.5459 9.53833 31.7188 9.95563 31.7188 10.3907V26.797C31.7174 27.2046 31.5642 27.597 31.2889 27.8976C31.0136 28.1982 30.6361 28.3853 30.2302 28.4223C30.3105 28.0567 30.3146 27.6784 30.2422 27.3111C30.3525 27.2774 30.4491 27.2093 30.5179 27.1168C30.5868 27.0244 30.6243 26.9123 30.625 26.797V10.3907C30.625 10.2457 30.5674 10.1066 30.4648 10.0041C30.3623 9.90149 30.2232 9.84387 30.0781 9.84387H26.7701C26.7486 9.47705 26.7053 9.11182 26.6405 8.75012H30.0781ZM8.22992 10.9376C8.3385 12.8875 9.06082 14.7532 10.2936 16.2679C11.5264 17.7826 13.2065 18.8687 15.0938 19.371C15.8833 19.5831 16.6972 19.6909 17.5148 19.6915C18.5856 19.6902 19.6479 19.5018 20.6538 19.1347L22.0938 21.6307L21.6207 21.9041C21.4951 21.9766 21.4035 22.0961 21.3659 22.2362C21.3284 22.3763 21.348 22.5255 21.4205 22.6511L23.4992 26.2501H5.46875V10.9376H8.22992ZM22.6084 18.1449L23.9892 20.5364L23.042 21.0833L21.6661 18.7C21.8302 18.6185 21.9898 18.5359 22.1484 18.4424C22.307 18.3489 22.4558 18.245 22.6084 18.1449ZM22.6417 22.5779L24.0636 21.7575L25.0108 21.2107L25.4833 20.9372L28.9888 27.0075V27.0103C29.2063 27.3874 29.2652 27.8355 29.1523 28.256C29.0395 28.6765 28.7643 29.0349 28.3872 29.2525C28.0101 29.47 27.562 29.5289 27.1415 29.4161C26.721 29.3032 26.3626 29.028 26.145 28.6509L22.6417 22.5779ZM26.157 19.9162C26.0845 19.7906 25.9651 19.699 25.825 19.6614C25.6849 19.6239 25.5356 19.6435 25.41 19.7161L24.9364 19.9895L23.4921 17.4886C24.4537 16.6754 25.2402 15.6755 25.8042 14.5495C26.3682 13.4235 26.6979 12.1947 26.7734 10.9376H29.5312V25.7612L26.157 19.9162ZM13.3984 3.28684C14.6403 2.5655 16.0507 2.18498 17.4869 2.1838C18.2082 2.18448 18.9264 2.27972 19.623 2.46708C21.1901 2.887 22.5975 3.76218 23.6672 4.98197C24.7369 6.20175 25.4209 7.71134 25.6327 9.31985C25.8445 10.9284 25.5745 12.5636 24.857 14.0187C24.1395 15.4738 23.0066 16.6834 21.6016 17.4947C20.6683 18.0418 19.636 18.3989 18.5642 18.5455C17.4923 18.692 16.402 18.6251 15.3561 18.3486C14.3103 18.0721 13.3294 17.5914 12.47 16.9343C11.6106 16.2771 10.8897 15.4565 10.3488 14.5196C9.80789 13.5827 9.45762 12.5481 9.31818 11.4753C9.17874 10.4025 9.25288 9.3127 9.53632 8.26866C9.81977 7.22463 10.3069 6.24697 10.9698 5.39198C11.6326 4.53698 12.458 3.82154 13.3984 3.28684ZM3.28125 10.3907C3.28125 9.95563 3.4541 9.53833 3.76178 9.23065C4.06945 8.92298 4.48675 8.75012 4.92188 8.75012H8.35789C8.29262 9.11182 8.24861 9.47703 8.22609 9.84387H4.92188C4.77683 9.84387 4.63774 9.90149 4.53518 10.0041C4.43262 10.1066 4.375 10.2457 4.375 10.3907V26.797C4.375 26.942 4.43262 27.0811 4.53518 27.1837C4.63774 27.2863 4.77683 27.3439 4.92188 27.3439H24.1303L24.762 28.4376H4.92188C4.48675 28.4376 4.06945 28.2648 3.76178 27.9571C3.4541 27.6494 3.28125 27.2321 3.28125 26.797V10.3907ZM19.6875 29.5314V30.0783C19.6875 30.2233 19.6299 30.3624 19.5273 30.465C19.4248 30.5675 19.2857 30.6251 19.1406 30.6251H15.8594C15.7143 30.6251 15.5752 30.5675 15.4727 30.465C15.3701 30.3624 15.3125 30.2233 15.3125 30.0783V29.5314H19.6875ZM32.8125 31.172C32.8125 31.6071 32.6396 32.0244 32.332 32.3321C32.0243 32.6398 31.607 32.8126 31.1719 32.8126H3.82812C3.393 32.8126 2.9757 32.6398 2.66803 32.3321C2.36035 32.0244 2.1875 31.6071 2.1875 31.172V29.5314H14.2188V30.0783C14.2188 30.5134 14.3916 30.9307 14.6993 31.2383C15.007 31.546 15.4243 31.7189 15.8594 31.7189H19.1406C19.5757 31.7189 19.993 31.546 20.3007 31.2383C20.6084 30.9307 20.7812 30.5134 20.7812 30.0783V29.5314H25.4297C25.684 29.8555 26.0087 30.1175 26.3792 30.2977C26.7497 30.4779 27.1563 30.5715 27.5682 30.5715C27.9802 30.5715 28.3868 30.4779 28.7573 30.2977C29.1278 30.1175 29.4524 29.8555 29.7068 29.5314H32.8125V31.172Z" fill="white"/>
<path d="M19.6875 13.6719H21.3281C21.4732 13.6719 21.6123 13.6143 21.7148 13.5117C21.8174 13.4091 21.875 13.27 21.875 13.125V7.65625C21.875 7.51121 21.8174 7.37211 21.7148 7.26955C21.6123 7.16699 21.4732 7.10938 21.3281 7.10938H19.6875C19.5425 7.10938 19.4034 7.16699 19.3008 7.26955C19.1982 7.37211 19.1406 7.51121 19.1406 7.65625V13.125C19.1406 13.27 19.1982 13.4091 19.3008 13.5117C19.4034 13.6143 19.5425 13.6719 19.6875 13.6719ZM20.2344 8.20312H20.7812V12.5781H20.2344V8.20312Z" fill="white"/>
<path d="M16.4062 13.6719H18.0469C18.1919 13.6719 18.331 13.6143 18.4336 13.5117C18.5361 13.4091 18.5938 13.27 18.5938 13.125V9.29688C18.5938 9.15183 18.5361 9.01273 18.4336 8.91018C18.331 8.80762 18.1919 8.75 18.0469 8.75H16.4062C16.2612 8.75 16.1221 8.80762 16.0196 8.91018C15.917 9.01273 15.8594 9.15183 15.8594 9.29688V13.125C15.8594 13.27 15.917 13.4091 16.0196 13.5117C16.1221 13.6143 16.2612 13.6719 16.4062 13.6719ZM16.9531 9.84375H17.5V12.5781H16.9531V9.84375Z" fill="white"/>
<path d="M13.125 13.6719H14.7656C14.9107 13.6719 15.0498 13.6143 15.1523 13.5117C15.2549 13.4091 15.3125 13.27 15.3125 13.125V10.9375C15.3125 10.7925 15.2549 10.6534 15.1523 10.5508C15.0498 10.4482 14.9107 10.3906 14.7656 10.3906H13.125C12.98 10.3906 12.8409 10.4482 12.7383 10.5508C12.6357 10.6534 12.5781 10.7925 12.5781 10.9375V13.125C12.5781 13.27 12.6357 13.4091 12.7383 13.5117C12.8409 13.6143 12.98 13.6719 13.125 13.6719ZM13.6719 11.4844H14.2188V12.5781H13.6719V11.4844Z" fill="white"/>
<path d="M8.20312 22.9688H9.29688C9.44192 22.9688 9.58102 22.9111 9.68357 22.8086C9.78613 22.706 9.84375 22.5669 9.84375 22.4219C9.84375 22.2768 9.78613 22.1377 9.68357 22.0352C9.58102 21.9326 9.44192 21.875 9.29688 21.875H8.20312C8.05808 21.875 7.91899 21.9326 7.81643 22.0352C7.71387 22.1377 7.65625 22.2768 7.65625 22.4219C7.65625 22.5669 7.71387 22.706 7.81643 22.8086C7.91899 22.9111 8.05808 22.9688 8.20312 22.9688Z" fill="white"/>
<path d="M11.4844 22.9688H19.6875C19.8325 22.9688 19.9716 22.9111 20.0742 22.8086C20.1768 22.706 20.2344 22.5669 20.2344 22.4219C20.2344 22.2768 20.1768 22.1377 20.0742 22.0352C19.9716 21.9326 19.8325 21.875 19.6875 21.875H11.4844C11.3393 21.875 11.2002 21.9326 11.0977 22.0352C10.9951 22.1377 10.9375 22.2768 10.9375 22.4219C10.9375 22.5669 10.9951 22.706 11.0977 22.8086C11.2002 22.9111 11.3393 22.9688 11.4844 22.9688Z" fill="white"/>
<path d="M8.20312 20.7812H9.29688C9.44192 20.7812 9.58102 20.7236 9.68357 20.6211C9.78613 20.5185 9.84375 20.3794 9.84375 20.2344C9.84375 20.0893 9.78613 19.9502 9.68357 19.8477C9.58102 19.7451 9.44192 19.6875 9.29688 19.6875H8.20312C8.05808 19.6875 7.91899 19.7451 7.81643 19.8477C7.71387 19.9502 7.65625 20.0893 7.65625 20.2344C7.65625 20.3794 7.71387 20.5185 7.81643 20.6211C7.91899 20.7236 8.05808 20.7812 8.20312 20.7812Z" fill="white"/>
<path d="M11.4844 20.7812H13.6719C13.8169 20.7812 13.956 20.7236 14.0586 20.6211C14.1611 20.5185 14.2188 20.3794 14.2188 20.2344C14.2188 20.0893 14.1611 19.9502 14.0586 19.8477C13.956 19.7451 13.8169 19.6875 13.6719 19.6875H11.4844C11.3393 19.6875 11.2002 19.7451 11.0977 19.8477C10.9951 19.9502 10.9375 20.0893 10.9375 20.2344C10.9375 20.3794 10.9951 20.5185 11.0977 20.6211C11.2002 20.7236 11.3393 20.7812 11.4844 20.7812Z" fill="white"/>
<path d="M8.20312 25.1562H9.29688C9.44192 25.1562 9.58102 25.0986 9.68357 24.9961C9.78613 24.8935 9.84375 24.7544 9.84375 24.6094C9.84375 24.4643 9.78613 24.3252 9.68357 24.2227C9.58102 24.1201 9.44192 24.0625 9.29688 24.0625H8.20312C8.05808 24.0625 7.91899 24.1201 7.81643 24.2227C7.71387 24.3252 7.65625 24.4643 7.65625 24.6094C7.65625 24.7544 7.71387 24.8935 7.81643 24.9961C7.91899 25.0986 8.05808 25.1562 8.20312 25.1562Z" fill="white"/>
<path d="M11.4844 25.1562H19.6875C19.8325 25.1562 19.9716 25.0986 20.0742 24.9961C20.1768 24.8935 20.2344 24.7544 20.2344 24.6094C20.2344 24.4643 20.1768 24.3252 20.0742 24.2227C19.9716 24.1201 19.8325 24.0625 19.6875 24.0625H11.4844C11.3393 24.0625 11.2002 24.1201 11.0977 24.2227C10.9951 24.3252 10.9375 24.4643 10.9375 24.6094C10.9375 24.7544 10.9951 24.8935 11.0977 24.9961C11.2002 25.0986 11.3393 25.1562 11.4844 25.1562Z" fill="white"/>
</svg>
