<svg width="50" height="50" viewBox="0 0 50 50" fill="none" xmlns="http://www.w3.org/2000/svg">
<circle cx="25" cy="25" r="25" fill="black"/>
<g style="mix-blend-mode:hard-light">
<path d="M5 21.3387V23.9373L10.4316 23.1662V20.3536L5 21.3387ZM6.73332 24.0954V33H8.72188V23.8331L6.73332 24.0954ZM11.1652 20.2206V33H13.2605V19.8403L11.1652 20.2206ZM13.6509 19.7695V22.7093L16.6767 22.2796V19.2208L13.6509 19.7695ZM13.6509 24.8973V27.8907L15.6371 27.7509V24.6767L13.6509 24.8973ZM13.6509 30.0483V33H16.6767V29.9305L13.6509 30.0483ZM24.5016 17.7969V33H27.2485V17.2986L24.5016 17.7969ZM27.7614 17.2055V20.7025L31.7645 20.1345V16.4792L27.7614 17.2055ZM27.7614 23.3325V26.8944L30.3852 26.7095V23.0426L27.7614 23.3325ZM27.7614 29.4978V33H31.7645V29.3418L27.7614 29.4978ZM17.4773 19.0753V33H19.8641V18.6422L17.4773 19.0753ZM20.3096 29.7891V32.9999H23.7743V29.6541L20.3096 29.7891ZM40.7392 16.3073C39.8711 15.2487 38.5981 14.8145 37.2059 15.0726V18.9513C37.7697 18.9109 38.2265 19.1809 38.4301 19.7246C38.7515 20.5818 38.4199 21.868 37.6376 23.0596C36.4303 24.8984 33.2196 28.6622 33.2196 28.6622L37.8287 28.4666C40.6448 24.9157 41.6562 22.7603 41.8376 20.0702C41.933 18.6471 41.5327 17.2758 40.7392 16.3073ZM42 33V28.9415L32.6515 29.305L42 33ZM32.6515 29.3049L32.6525 32.9999H42L32.6515 29.3049ZM36.6685 15.1597C33.9527 15.9062 32.6191 18.4848 32.7729 22.6925L35.6686 22.3609C35.5367 19.9837 36.1001 19.4198 36.6699 19.1098L36.6685 15.1597Z" fill="white"/>
</g>
</svg>
