<svg width="35" height="35" viewBox="0 0 35 35" fill="none" xmlns="http://www.w3.org/2000/svg">
<path d="M21.5078 12.0313H19.9313L20.4107 7.71674C20.4236 7.60138 20.3994 7.48493 20.3416 7.38423C20.2839 7.28354 20.1956 7.20383 20.0896 7.15663C19.9835 7.10943 19.8652 7.0972 19.7518 7.1217C19.6383 7.1462 19.5356 7.20616 19.4585 7.29291L15.0835 12.2148C15.0134 12.2936 14.9676 12.391 14.9516 12.4952C14.9356 12.5994 14.9501 12.706 14.9933 12.8022C15.0365 12.8984 15.1065 12.98 15.1951 13.0373C15.2836 13.0946 15.3868 13.1251 15.4922 13.1251H17.0687L16.5893 17.4396C16.5765 17.555 16.6007 17.6715 16.6584 17.7721C16.7161 17.8728 16.8044 17.9526 16.9105 17.9998C17.0165 18.0469 17.1348 18.0592 17.2483 18.0347C17.3617 18.0102 17.4644 17.9502 17.5416 17.8635L21.9166 12.9416C21.9866 12.8628 22.0324 12.7654 22.0484 12.6612C22.0644 12.557 22.05 12.4504 22.0068 12.3542C21.9636 12.258 21.8935 12.1763 21.805 12.1191C21.7165 12.0618 21.6133 12.0313 21.5078 12.0313ZM17.8663 15.8519L18.2232 12.6386C18.2317 12.5622 18.224 12.4848 18.2006 12.4115C18.1771 12.3383 18.1385 12.2708 18.0872 12.2135C18.0359 12.1562 17.9731 12.1103 17.9029 12.0789C17.8327 12.0475 17.7566 12.0313 17.6797 12.0313H16.71L19.1338 9.30452L18.7768 12.5178C18.7683 12.5942 18.776 12.6716 18.7995 12.7448C18.8229 12.8181 18.8615 12.8856 18.9128 12.9429C18.9641 13.0002 19.0269 13.0461 19.0971 13.0775C19.1674 13.1088 19.2434 13.1251 19.3203 13.1251H20.2901L17.8663 15.8519Z" fill="white"/>
<path d="M31.0781 13.125C31.0781 6.18926 25.4357 0.546875 18.5 0.546875C11.5642 0.546875 5.92185 6.18926 5.92185 13.125C5.91929 15.694 6.70426 18.2021 8.17099 20.3112C9.63772 22.4204 11.7157 24.0293 14.125 24.9211V26.25H13.5781C13.4331 26.25 13.294 26.3076 13.1914 26.4102C13.0888 26.5127 13.0312 26.6518 13.0312 26.7969V30.8984C13.0318 31.4059 13.2336 31.8924 13.5925 32.2513C13.9513 32.6101 14.4378 32.8119 14.9453 32.8125H15.7656V33.0859C15.766 33.4484 15.9101 33.796 16.1664 34.0523C16.4228 34.3086 16.7703 34.4528 17.1328 34.4531H19.8672C20.2297 34.4528 20.5772 34.3086 20.8335 34.0523C21.0898 33.796 21.234 33.4484 21.2343 33.0859V32.8125H22.0547C22.5621 32.8119 23.0487 32.6101 23.4075 32.2513C23.7663 31.8924 23.9682 31.4059 23.9687 30.8984V26.7969C23.9687 26.6518 23.9111 26.5127 23.8085 26.4102C23.706 26.3076 23.5669 26.25 23.4218 26.25H22.875V24.9211C25.2842 24.0293 27.3622 22.4204 28.829 20.3112C30.2957 18.2021 31.0807 15.694 31.0781 13.125ZM20.1406 33.0859C20.1406 33.1585 20.1118 33.228 20.0605 33.2793C20.0092 33.3306 19.9397 33.3594 19.8672 33.3594H17.1328C17.0603 33.3594 16.9907 33.3306 16.9394 33.2793C16.8882 33.228 16.8593 33.1585 16.8593 33.0859V32.8125H20.1406V33.0859ZM22.875 30.8984C22.8748 31.1159 22.7883 31.3245 22.6345 31.4783C22.4807 31.6321 22.2722 31.7186 22.0547 31.7188H14.9453C14.7278 31.7186 14.5192 31.6321 14.3654 31.4783C14.2116 31.3245 14.1252 31.1159 14.125 30.8984V27.3438H22.875V30.8984ZM16.8593 19.4961C17.9382 19.7513 19.0617 19.7513 20.1406 19.4961V26.25H19.0468V24.6094C19.0468 24.4643 18.9892 24.3252 18.8867 24.2227C18.7841 24.1201 18.645 24.0625 18.5 24.0625C18.3549 24.0625 18.2158 24.1201 18.1133 24.2227C18.0107 24.3252 17.9531 24.4643 17.9531 24.6094V26.25H16.8593V19.4961ZM12.4844 12.5781C12.4844 11.3883 12.8372 10.2253 13.4982 9.23602C14.1592 8.24676 15.0987 7.47572 16.1979 7.02041C17.2971 6.5651 18.5066 6.44597 19.6736 6.67809C20.8405 6.9102 21.9124 7.48314 22.7537 8.32444C23.595 9.16574 24.1679 10.2376 24.4 11.4045C24.6321 12.5715 24.513 13.781 24.0577 14.8802C23.6024 15.9794 22.8313 16.9189 21.8421 17.5799C20.8528 18.2409 19.6898 18.5938 18.5 18.5938C16.9051 18.5919 15.376 17.9576 14.2483 16.8298C13.1205 15.7021 12.4862 14.173 12.4844 12.5781ZM22.1545 24.016C22.0458 24.0523 21.9512 24.1219 21.8843 24.2149C21.8173 24.3079 21.7812 24.4196 21.7812 24.5342V26.25H21.2343V19.1406C22.5118 18.6048 23.6061 17.7095 24.3843 16.5635C25.2064 15.349 25.6327 13.9101 25.6048 12.4438C25.5768 10.9776 25.096 9.55591 24.2283 8.37366C23.3606 7.19142 22.1485 6.30651 20.7581 5.84027C19.3677 5.37402 17.8671 5.34927 16.4621 5.76939C15.057 6.18952 13.8163 7.03396 12.9101 8.18694C12.0039 9.33992 11.4765 10.745 11.4002 12.2095C11.3239 13.674 11.7025 15.1263 12.484 16.3671C13.2656 17.608 14.4118 18.5768 15.7656 19.1406V26.25H15.2187V24.5342C15.2187 24.4196 15.1827 24.3079 15.1157 24.2149C15.0487 24.1219 14.9542 24.0523 14.8455 24.016C12.5628 23.2515 10.5785 21.7884 9.17326 19.8339C7.76806 17.8793 7.01322 15.5323 7.0156 13.125C7.0156 6.79219 12.1672 1.64062 18.5 1.64062C24.8328 1.64062 29.9843 6.79219 29.9843 13.125C29.9867 15.5323 29.2319 17.8793 27.8267 19.8339C26.4215 21.7884 24.4371 23.2515 22.1545 24.016Z" fill="white"/>
<path d="M21.2344 27.8906H15.7656C15.6206 27.8906 15.4815 27.9482 15.3789 28.0508C15.2764 28.1534 15.2188 28.2925 15.2188 28.4375V30.625C15.2188 30.77 15.2764 30.9091 15.3789 31.0117C15.4815 31.1143 15.6206 31.1719 15.7656 31.1719H21.2344C21.3794 31.1719 21.5185 31.1143 21.6211 31.0117C21.7236 30.9091 21.7812 30.77 21.7812 30.625V28.4375C21.7812 28.2925 21.7236 28.1534 21.6211 28.0508C21.5185 27.9482 21.3794 27.8906 21.2344 27.8906ZM20.6875 30.0781H16.3125V28.9844H20.6875V30.0781Z" fill="white"/>
</svg>
