<svg width="35" height="35" viewBox="0 0 35 35" fill="none" xmlns="http://www.w3.org/2000/svg">
	<path d="M29.1666 0H8.16663C6.73979 0 5.55388 1.03133 5.30363 2.387C3.94796 2.63725 2.91663 3.82317 2.91663 5.25V32.0833C2.91663 33.6916 4.22504 35 5.83329 35H26.8333C28.2601 35 29.446 33.9687 29.6963 32.613C31.052 32.3628 32.0833 31.1768 32.0833 29.75V2.91667C32.0833 1.30842 30.7749 0 29.1666 0ZM28.5833 32.0833C28.5833 33.0482 27.7981 33.8333 26.8333 33.8333H5.83329C4.86846 33.8333 4.08329 33.0482 4.08329 32.0833V5.25C4.08329 4.28517 4.86846 3.5 5.83329 3.5H23.3333V8.16667C23.3333 8.48925 23.5946 8.75 23.9166 8.75H28.5833V32.0833ZM24.5 7.58333V4.32483L27.7585 7.58333H24.5ZM30.9166 29.75C30.9166 30.5095 30.4272 31.1512 29.75 31.3927V8.16667C29.75 8.00508 29.6846 7.85925 29.5785 7.75367L24.3296 2.50483C24.224 2.39867 24.0782 2.33333 23.9166 2.33333H6.52396C6.76546 1.65608 7.40713 1.16667 8.16663 1.16667H29.1666C30.1315 1.16667 30.9166 1.95183 30.9166 2.91667V29.75Z" fill="white" />
	<path d="M16.3334 8.75C11.83 8.75 8.16669 12.4133 8.16669 16.9167C8.16669 21.42 11.83 25.0833 16.3334 25.0833C20.8367 25.0833 24.5 21.42 24.5 16.9167C24.5 12.4133 20.8367 8.75 16.3334 8.75ZM16.3334 23.9167C12.4734 23.9167 9.33335 20.7766 9.33335 16.9167C9.33335 13.0567 12.4734 9.91667 16.3334 9.91667C20.1933 9.91667 23.3334 13.0567 23.3334 16.9167C23.3334 20.7766 20.1933 23.9167 16.3334 23.9167Z" fill="white" />
	<path d="M18.1829 13.0919L13.5161 20.0925L14.4869 20.7397L19.1537 13.7391L18.1829 13.0919Z" fill="white" />
	<path d="M19.25 16.9166C18.2852 16.9166 17.5 17.7018 17.5 18.6666C17.5 19.6315 18.2852 20.4166 19.25 20.4166C20.2148 20.4166 21 19.6315 21 18.6666C21 17.7018 20.2148 16.9166 19.25 16.9166ZM19.25 19.25C18.9286 19.25 18.6667 18.9886 18.6667 18.6666C18.6667 18.3446 18.9286 18.0833 19.25 18.0833C19.5714 18.0833 19.8333 18.3446 19.8333 18.6666C19.8333 18.9886 19.5714 19.25 19.25 19.25Z" fill="white" />
	<path d="M13.4166 13.4166C12.4518 13.4166 11.6666 14.2018 11.6666 15.1666C11.6666 16.1315 12.4518 16.9166 13.4166 16.9166C14.3815 16.9166 15.1666 16.1315 15.1666 15.1666C15.1666 14.2018 14.3815 13.4166 13.4166 13.4166ZM13.4166 15.75C13.0952 15.75 12.8333 15.4886 12.8333 15.1666C12.8333 14.8446 13.0952 14.5833 13.4166 14.5833C13.738 14.5833 14 14.8446 14 15.1666C14 15.4886 13.738 15.75 13.4166 15.75Z" fill="white" />
	<path d="M19.4209 25.8376L16.3333 28.9252L14.9958 27.5876L14.1709 28.4125L15.9209 30.1625C16.0347 30.2762 16.184 30.3334 16.3333 30.3334C16.4827 30.3334 16.632 30.2762 16.7458 30.1625L20.2458 26.6625L19.4209 25.8376Z" fill="white" />
</svg>
