<svg width="35" height="29" viewBox="0 0 35 29" fill="none" xmlns="http://www.w3.org/2000/svg">
<path d="M34.9827 9.15129C34.9362 8.94895 34.8029 8.7801 34.6163 8.68918L29.3315 6.11121C29.2371 6.06541 29.1366 6.04217 29.032 6.04217C28.7682 6.04217 28.533 6.18012 28.4175 6.41664C28.2521 6.7557 28.3929 7.18555 28.7319 7.32227H28.7326L33.2545 9.53738L29.2638 14.6035C27.0873 15.1381 24.4043 15.5075 21.473 15.6811C21.7902 15.2559 21.9433 14.8568 21.9433 14.4638V11.2801C21.9433 11.0279 21.8045 10.7962 21.5824 10.6772L17.8227 8.66669C17.621 8.55937 17.379 8.55937 17.1774 8.66669L13.4176 10.6772C13.1954 10.7962 13.0566 11.0279 13.0566 11.2801V14.4638C13.0566 14.8568 13.2098 15.2582 13.5269 15.6834C10.5957 15.5097 7.91201 15.1426 5.73613 14.608L1.74538 9.54641L17.5 1.8611L23.2025 4.64278C23.2968 4.68858 23.3973 4.71183 23.5019 4.71183C23.7651 4.71183 24.0009 4.56485 24.1165 4.32833C24.1964 4.16358 24.2081 3.97833 24.1486 3.80606C24.0891 3.63312 23.9661 3.49366 23.802 3.41368L17.7994 0.485645C17.6142 0.39541 17.3852 0.39541 17.2006 0.485645L0.384479 8.68918C0.197174 8.7801 0.0638735 8.94895 0.0173892 9.15129C-0.0290952 9.35432 0.0187564 9.56418 0.147272 9.72687L4.65899 15.4494L4.64867 17.9433C4.64833 18.0297 4.66466 18.113 4.69426 18.1902C4.69625 18.1956 5.72806 20.7007 5.72806 20.7007C6.69248 23.0407 8.31382 25.0218 10.4168 26.4297C12.5199 27.8378 14.9692 28.582 17.5 28.582C20.0308 28.582 22.4801 27.8378 24.5832 26.4298C26.6862 25.0218 28.3076 23.0408 29.272 20.7007C29.272 20.7007 30.3046 18.1941 30.3067 18.1879C30.3357 18.1114 30.3518 18.0289 30.3514 17.9433L30.3408 15.4499L34.8528 9.72694C34.9813 9.5635 35.0291 9.35432 34.9827 9.15129ZM14.4239 11.6896L17.5 10.0448L20.5762 11.6896V14.4638C20.5762 14.4829 20.5618 14.8896 19.4312 15.7716C19.3013 15.8727 17.8452 16.8408 17.5 17.0356C17.1548 16.8408 15.6988 15.8727 15.5689 15.7716C14.4382 14.8896 14.4239 14.4829 14.4239 14.4638V11.6896ZM28.008 20.1797C26.2467 24.4533 22.1221 27.2148 17.5 27.2148C12.878 27.2148 8.75338 24.4533 6.9921 20.1797L6.46874 18.9098C9.54901 19.5512 13.4042 19.9 17.5 19.9C21.5958 19.9 25.451 19.5512 28.5313 18.9098L28.008 20.1797ZM17.5 18.5327C13.1595 18.5327 9.11049 18.1355 6.01811 17.4103L6.02358 16.0785C7.41545 16.3883 8.98546 16.6377 10.7052 16.8209C12.1121 16.9706 13.5811 17.0718 15.0938 17.1238C15.1369 17.1552 17.1439 18.4001 17.1836 18.4206C17.2827 18.4726 17.3914 18.4985 17.5001 18.4985C17.6088 18.4985 17.7175 18.4726 17.8166 18.4206C17.8562 18.4001 19.8633 17.1552 19.9063 17.1238C21.4191 17.0718 22.888 16.9706 24.2949 16.8209C26.0146 16.6377 27.5845 16.3883 28.9763 16.0786L28.982 17.4103C25.8895 18.1355 21.8404 18.5327 17.5 18.5327Z" fill="white"/>
<path d="M26.2664 6.06055C26.6439 6.06055 26.95 5.75449 26.95 5.37695C26.95 4.99941 26.6439 4.69336 26.2664 4.69336C25.8888 4.69336 25.5828 4.99941 25.5828 5.37695C25.5828 5.75449 25.8888 6.06055 26.2664 6.06055Z" fill="white"/>
<path d="M6.22733 10.4951C6.05499 10.16 5.64395 10.0275 5.3083 10.1991C4.97211 10.3709 4.83888 10.7828 5.01073 11.1189C5.05776 11.2108 6.18569 13.3746 8.25657 13.6721C8.28952 13.6768 8.32227 13.6791 8.35467 13.6791C8.68908 13.6791 8.98152 13.4333 9.03047 13.0926C9.08413 12.7189 8.82471 12.3723 8.45106 12.3187C7.09105 12.1234 6.24154 10.5223 6.22733 10.4951Z" fill="white"/>
<path d="M25.9697 13.0924C26.0187 13.4332 26.311 13.679 26.6455 13.679C26.6778 13.679 26.7107 13.6766 26.7436 13.6719C28.8144 13.3745 29.9424 11.2107 29.9894 11.1188C30.1609 10.7833 30.0281 10.3733 29.6932 10.2008C29.3583 10.0283 28.9465 10.1602 28.773 10.4947C28.7645 10.511 27.9138 12.1226 26.5492 12.3185C26.1754 12.3722 25.916 12.7187 25.9697 13.0924Z" fill="white"/>
</svg>
